<mxfile host="65bd71144e">
    <diagram id="SH4pBPP4Saam_mVnqLZr" name="Page-1">
        <mxGraphModel dx="932" dy="746" grid="0" gridSize="10" guides="1" tooltips="1" connect="1" arrows="1" fold="1" page="1" pageScale="1" pageWidth="1169" pageHeight="827" background="#ffffff" math="0" shadow="0">
            <root>
                <mxCell id="0"/>
                <mxCell id="1" parent="0"/>
                <mxCell id="212" value="" style="rounded=1;whiteSpace=wrap;html=1;fontSize=9;fontColor=#000000;strokeColor=#000000;fillColor=none;" parent="1" vertex="1">
                    <mxGeometry x="314.56" y="604.5" width="110.44" height="78.5" as="geometry"/>
                </mxCell>
                <mxCell id="136" value="" style="rounded=1;whiteSpace=wrap;html=1;fontColor=#000000;strokeColor=#000000;fillColor=none;" parent="1" vertex="1">
                    <mxGeometry x="158" y="129" width="112" height="90" as="geometry"/>
                </mxCell>
                <mxCell id="137" value="" style="rounded=1;whiteSpace=wrap;html=1;fontColor=#000000;strokeColor=#000000;fillColor=none;" parent="1" vertex="1">
                    <mxGeometry x="288" y="133" width="112" height="90" as="geometry"/>
                </mxCell>
                <mxCell id="71" value="Selection of varied algorithms" style="whiteSpace=wrap;html=1;fontColor=#000000;strokeColor=#000000;fillColor=none;rounded=1;" parent="1" vertex="1">
                    <mxGeometry x="294" y="138" width="100" height="30" as="geometry"/>
                </mxCell>
                <mxCell id="85" value="&lt;p&gt;&lt;/p&gt;&lt;span style=&quot;line-height: 1.2&quot;&gt;Hyperparameter tunings&lt;br&gt;&lt;/span&gt;&lt;p&gt;&lt;/p&gt;" style="whiteSpace=wrap;html=1;fontColor=#000000;strokeColor=#000000;fillColor=none;align=center;rounded=1;" parent="1" vertex="1">
                    <mxGeometry x="294" y="183" width="100" height="30" as="geometry"/>
                </mxCell>
                <mxCell id="160" style="edgeStyle=none;html=1;exitX=0.5;exitY=1;exitDx=0;exitDy=0;entryX=0.5;entryY=0;entryDx=0;entryDy=0;fillColor=#a20025;strokeColor=#000000;endArrow=openThin;endFill=0;" parent="1" source="86" target="87" edge="1">
                    <mxGeometry relative="1" as="geometry"/>
                </mxCell>
                <mxCell id="86" value="Model Training" style="rounded=0;whiteSpace=wrap;html=1;fontColor=#000000;strokeColor=#000000;fillColor=none;" parent="1" vertex="1">
                    <mxGeometry x="290" y="239.66" width="100" height="30.34" as="geometry"/>
                </mxCell>
                <mxCell id="114" style="edgeStyle=none;html=1;exitX=1;exitY=0.5;exitDx=0;exitDy=0;entryX=0;entryY=0.5;entryDx=0;entryDy=0;fontColor=#000000;strokeColor=#000000;endArrow=openThin;endFill=0;" parent="1" source="87" target="88" edge="1">
                    <mxGeometry relative="1" as="geometry"/>
                </mxCell>
                <mxCell id="119" style="edgeStyle=none;html=1;exitX=0.5;exitY=1;exitDx=0;exitDy=0;entryX=0.5;entryY=0;entryDx=0;entryDy=0;fontColor=#000000;strokeColor=#000000;endArrow=openThin;endFill=0;" parent="1" source="87" target="118" edge="1">
                    <mxGeometry relative="1" as="geometry"/>
                </mxCell>
                <mxCell id="87" value="Model Evaluation" style="rounded=0;whiteSpace=wrap;html=1;fontColor=#000000;strokeColor=#000000;fillColor=none;" parent="1" vertex="1">
                    <mxGeometry x="290" y="326" width="100" height="30" as="geometry"/>
                </mxCell>
                <mxCell id="117" style="edgeStyle=none;html=1;exitX=1;exitY=0.5;exitDx=0;exitDy=0;fontColor=#000000;strokeColor=#000000;endArrow=openThin;endFill=0;" parent="1" source="88" target="137" edge="1">
                    <mxGeometry relative="1" as="geometry">
                        <Array as="points">
                            <mxPoint x="510" y="341"/>
                            <mxPoint x="510" y="178"/>
                        </Array>
                        <mxPoint x="400" y="165" as="targetPoint"/>
                    </mxGeometry>
                </mxCell>
                <mxCell id="88" value="Validation loss" style="rounded=0;whiteSpace=wrap;html=1;fontColor=#000000;strokeColor=#000000;fillColor=none;" parent="1" vertex="1">
                    <mxGeometry x="410" y="326" width="90" height="30" as="geometry"/>
                </mxCell>
                <mxCell id="89" value="Training loss" style="rounded=0;whiteSpace=wrap;html=1;fontColor=#000000;strokeColor=#000000;fillColor=none;" parent="1" vertex="1">
                    <mxGeometry x="410" y="239.66" width="90" height="30.34" as="geometry"/>
                </mxCell>
                <mxCell id="99" value="" style="group" parent="1" vertex="1" connectable="0">
                    <mxGeometry x="175.36" y="361" width="88.89" height="50" as="geometry"/>
                </mxCell>
                <mxCell id="44" value="" style="endArrow=none;html=1;fontColor=#000000;strokeColor=#000000;" parent="99" edge="1">
                    <mxGeometry width="50" height="50" relative="1" as="geometry">
                        <mxPoint y="50" as="sourcePoint"/>
                        <mxPoint as="targetPoint"/>
                    </mxGeometry>
                </mxCell>
                <mxCell id="45" value="" style="endArrow=none;html=1;fontColor=#000000;strokeColor=#000000;" parent="99" edge="1">
                    <mxGeometry width="50" height="50" relative="1" as="geometry">
                        <mxPoint x="86.73822480765621" y="50" as="sourcePoint"/>
                        <mxPoint y="50" as="targetPoint"/>
                    </mxGeometry>
                </mxCell>
                <mxCell id="98" value="" style="group" parent="99" vertex="1" connectable="0">
                    <mxGeometry y="1.1031249999999915" width="88.89" height="43.19062500000001" as="geometry"/>
                </mxCell>
                <mxCell id="46" value="" style="pointerEvents=1;verticalLabelPosition=bottom;shadow=0;dashed=0;align=center;html=1;verticalAlign=top;shape=mxgraph.electrical.waveforms.sine_wave;fontColor=#000000;strokeColor=#CCCCCC;fillColor=none;" parent="98" vertex="1">
                    <mxGeometry y="12.021875000000009" width="18.01486207543629" height="30.625" as="geometry"/>
                </mxCell>
                <mxCell id="47" value="" style="pointerEvents=1;verticalLabelPosition=bottom;shadow=0;dashed=0;align=center;html=1;verticalAlign=top;shape=mxgraph.electrical.waveforms.sine_wave;fontColor=#000000;strokeColor=#CCCCCC;fillColor=none;" parent="98" vertex="1">
                    <mxGeometry x="18.01486207543629" y="17.95937500000001" width="20.016513417151433" height="18.75" as="geometry"/>
                </mxCell>
                <mxCell id="48" value="" style="pointerEvents=1;verticalLabelPosition=bottom;shadow=0;dashed=0;align=center;html=1;verticalAlign=top;shape=mxgraph.electrical.waveforms.sine_wave;fontColor=#000000;strokeColor=#CCCCCC;fillColor=none;" parent="98" vertex="1">
                    <mxGeometry x="38.03137549258773" y="14.053125000000009" width="10.675473822480763" height="26.5625" as="geometry"/>
                </mxCell>
                <mxCell id="49" value="" style="pointerEvents=1;verticalLabelPosition=bottom;shadow=0;dashed=0;align=center;html=1;verticalAlign=top;shape=mxgraph.electrical.waveforms.sine_wave;fontColor=#000000;strokeColor=#CCCCCC;fillColor=none;" parent="98" vertex="1">
                    <mxGeometry x="48.70684931506849" y="17.95937500000001" width="11.34269093638581" height="18.75" as="geometry"/>
                </mxCell>
                <mxCell id="50" value="" style="pointerEvents=1;verticalLabelPosition=bottom;shadow=0;dashed=0;align=center;html=1;verticalAlign=top;shape=mxgraph.electrical.waveforms.sine_wave;fontColor=#000000;strokeColor=#000000;fillColor=none;" parent="98" vertex="1">
                    <mxGeometry x="60.04954025145429" y="11.471875000000011" width="12.677125164195907" height="31.71875" as="geometry"/>
                </mxCell>
                <mxCell id="51" value="" style="pointerEvents=1;verticalLabelPosition=bottom;shadow=0;dashed=0;align=center;html=1;verticalAlign=top;shape=mxgraph.electrical.waveforms.sine_wave;fontColor=#000000;strokeColor=#CCCCCC;fillColor=none;" parent="98" vertex="1">
                    <mxGeometry x="72.7266654156502" y="17.95937500000001" width="13.344342278100955" height="18.75" as="geometry"/>
                </mxCell>
                <mxCell id="57" value="" style="shape=curlyBracket;whiteSpace=wrap;html=1;rounded=1;fontColor=#000000;strokeColor=#000000;fillColor=none;rotation=90;" parent="98" vertex="1">
                    <mxGeometry x="60.05363482829798" y="-3.0368750000000073" width="13.344342278100955" height="17.09375" as="geometry"/>
                </mxCell>
                <mxCell id="101" value="" style="group" parent="1" vertex="1" connectable="0">
                    <mxGeometry x="169.99999999999997" y="239.66" width="99.61000000000001" height="80" as="geometry"/>
                </mxCell>
                <mxCell id="73" value="" style="group" parent="101" vertex="1" connectable="0">
                    <mxGeometry x="5.360000000000042" y="20" width="88.89" height="60" as="geometry"/>
                </mxCell>
                <mxCell id="92" value="" style="group" parent="73" vertex="1" connectable="0">
                    <mxGeometry y="16.363636363636363" width="88.89" height="43.63636363636364" as="geometry"/>
                </mxCell>
                <mxCell id="26" value="" style="endArrow=none;html=1;fontColor=#000000;strokeColor=#000000;" parent="92" edge="1">
                    <mxGeometry width="50" height="50" relative="1" as="geometry">
                        <mxPoint y="43.63636363636364" as="sourcePoint"/>
                        <mxPoint y="1.937843824800273e-15" as="targetPoint"/>
                    </mxGeometry>
                </mxCell>
                <mxCell id="27" value="" style="endArrow=none;html=1;fontColor=#000000;strokeColor=#000000;" parent="92" edge="1">
                    <mxGeometry width="50" height="50" relative="1" as="geometry">
                        <mxPoint x="88.89" y="43.63636363636364" as="sourcePoint"/>
                        <mxPoint y="43.63636363636364" as="targetPoint"/>
                    </mxGeometry>
                </mxCell>
                <mxCell id="37" value="" style="pointerEvents=1;verticalLabelPosition=bottom;shadow=0;dashed=0;align=center;html=1;verticalAlign=top;shape=mxgraph.electrical.waveforms.sine_wave;fontColor=#000000;strokeColor=#000000;fillColor=none;" parent="92" vertex="1">
                    <mxGeometry y="11.454545454545457" width="18.461769230769235" height="26.72727272727273" as="geometry"/>
                </mxCell>
                <mxCell id="39" value="" style="pointerEvents=1;verticalLabelPosition=bottom;shadow=0;dashed=0;align=center;html=1;verticalAlign=top;shape=mxgraph.electrical.waveforms.sine_wave;fontColor=#000000;strokeColor=#000000;fillColor=none;" parent="92" vertex="1">
                    <mxGeometry x="18.461769230769235" y="16.636363636363637" width="20.513076923076927" height="16.363636363636367" as="geometry"/>
                </mxCell>
                <mxCell id="40" value="" style="pointerEvents=1;verticalLabelPosition=bottom;shadow=0;dashed=0;align=center;html=1;verticalAlign=top;shape=mxgraph.electrical.waveforms.sine_wave;fontColor=#000000;strokeColor=#000000;fillColor=none;" parent="92" vertex="1">
                    <mxGeometry x="38.97484615384616" y="13.22727272727273" width="10.940307692307693" height="23.181818181818183" as="geometry"/>
                </mxCell>
                <mxCell id="41" value="" style="pointerEvents=1;verticalLabelPosition=bottom;shadow=0;dashed=0;align=center;html=1;verticalAlign=top;shape=mxgraph.electrical.waveforms.sine_wave;fontColor=#000000;strokeColor=#000000;fillColor=none;" parent="92" vertex="1">
                    <mxGeometry x="49.91515384615385" y="16.636363636363637" width="11.624076923076924" height="16.363636363636367" as="geometry"/>
                </mxCell>
                <mxCell id="42" value="" style="pointerEvents=1;verticalLabelPosition=bottom;shadow=0;dashed=0;align=center;html=1;verticalAlign=top;shape=mxgraph.electrical.waveforms.sine_wave;fontColor=#000000;strokeColor=#CCCCCC;fillColor=none;" parent="92" vertex="1">
                    <mxGeometry x="61.53923076923078" y="10.97454545454546" width="12.991615384615386" height="27.681818181818187" as="geometry"/>
                </mxCell>
                <mxCell id="43" value="" style="pointerEvents=1;verticalLabelPosition=bottom;shadow=0;dashed=0;align=center;html=1;verticalAlign=top;shape=mxgraph.electrical.waveforms.sine_wave;fontColor=#000000;strokeColor=#CCCCCC;fillColor=none;" parent="92" vertex="1">
                    <mxGeometry x="74.53084615384616" y="16.636363636363637" width="13.675384615384615" height="16.363636363636367" as="geometry"/>
                </mxCell>
                <mxCell id="55" value="" style="shape=curlyBracket;whiteSpace=wrap;html=1;rounded=1;fontColor=#000000;strokeColor=#000000;fillColor=none;rotation=90;" parent="92" vertex="1">
                    <mxGeometry x="28" y="-21.77" width="13.68" height="54.45" as="geometry"/>
                </mxCell>
                <mxCell id="96" value="Training Dataset" style="rounded=0;whiteSpace=wrap;html=1;fontColor=#000000;strokeColor=#000000;fillColor=none;" parent="101" vertex="1">
                    <mxGeometry width="99.61" height="30" as="geometry"/>
                </mxCell>
                <mxCell id="109" style="edgeStyle=none;html=1;exitX=1;exitY=0.5;exitDx=0;exitDy=0;entryX=0;entryY=0.5;entryDx=0;entryDy=0;fontColor=#000000;strokeColor=#000000;endArrow=openThin;endFill=0;" parent="1" source="103" target="87" edge="1">
                    <mxGeometry relative="1" as="geometry"/>
                </mxCell>
                <mxCell id="103" value="Validation Dataset" style="rounded=0;whiteSpace=wrap;html=1;fontColor=#000000;strokeColor=#000000;fillColor=none;" parent="1" vertex="1">
                    <mxGeometry x="169.99999999999997" y="326" width="99.61" height="30" as="geometry"/>
                </mxCell>
                <mxCell id="94" value="" style="group" parent="1" vertex="1" connectable="0">
                    <mxGeometry x="45.150000000000006" y="326" width="89.7" height="46" as="geometry"/>
                </mxCell>
                <mxCell id="58" value="" style="endArrow=none;html=1;fontColor=#000000;strokeColor=#000000;" parent="94" edge="1">
                    <mxGeometry width="50" height="50" relative="1" as="geometry">
                        <mxPoint y="46" as="sourcePoint"/>
                        <mxPoint as="targetPoint"/>
                    </mxGeometry>
                </mxCell>
                <mxCell id="59" value="" style="endArrow=none;html=1;fontColor=#000000;strokeColor=#000000;" parent="94" edge="1">
                    <mxGeometry width="50" height="50" relative="1" as="geometry">
                        <mxPoint x="89.7" y="46" as="sourcePoint"/>
                        <mxPoint y="46" as="targetPoint"/>
                    </mxGeometry>
                </mxCell>
                <mxCell id="60" value="" style="pointerEvents=1;verticalLabelPosition=bottom;shadow=0;dashed=0;align=center;html=1;verticalAlign=top;shape=mxgraph.electrical.waveforms.sine_wave;fontColor=#000000;strokeColor=#000000;fillColor=none;" parent="94" vertex="1">
                    <mxGeometry y="12.075000000000001" width="18.630000000000003" height="28.175" as="geometry"/>
                </mxCell>
                <mxCell id="61" value="" style="pointerEvents=1;verticalLabelPosition=bottom;shadow=0;dashed=0;align=center;html=1;verticalAlign=top;shape=mxgraph.electrical.waveforms.sine_wave;fontColor=#000000;strokeColor=#000000;fillColor=none;" parent="94" vertex="1">
                    <mxGeometry x="18.630000000000003" y="17.5375" width="20.7" height="17.25" as="geometry"/>
                </mxCell>
                <mxCell id="62" value="" style="pointerEvents=1;verticalLabelPosition=bottom;shadow=0;dashed=0;align=center;html=1;verticalAlign=top;shape=mxgraph.electrical.waveforms.sine_wave;fontColor=#000000;strokeColor=#000000;fillColor=none;" parent="94" vertex="1">
                    <mxGeometry x="39.33" y="13.943750000000001" width="11.040000000000001" height="24.4375" as="geometry"/>
                </mxCell>
                <mxCell id="63" value="" style="pointerEvents=1;verticalLabelPosition=bottom;shadow=0;dashed=0;align=center;html=1;verticalAlign=top;shape=mxgraph.electrical.waveforms.sine_wave;fontColor=#000000;strokeColor=#000000;fillColor=none;" parent="94" vertex="1">
                    <mxGeometry x="50.370000000000005" y="17.5375" width="11.73" height="17.25" as="geometry"/>
                </mxCell>
                <mxCell id="64" value="" style="pointerEvents=1;verticalLabelPosition=bottom;shadow=0;dashed=0;align=center;html=1;verticalAlign=top;shape=mxgraph.electrical.waveforms.sine_wave;fontColor=#000000;strokeColor=#000000;fillColor=none;" parent="94" vertex="1">
                    <mxGeometry x="62.1" y="11.569000000000003" width="13.110000000000001" height="29.181250000000002" as="geometry"/>
                </mxCell>
                <mxCell id="65" value="" style="pointerEvents=1;verticalLabelPosition=bottom;shadow=0;dashed=0;align=center;html=1;verticalAlign=top;shape=mxgraph.electrical.waveforms.sine_wave;fontColor=#000000;strokeColor=#000000;fillColor=none;" parent="94" vertex="1">
                    <mxGeometry x="75.21000000000001" y="17.5375" width="13.8" height="17.25" as="geometry"/>
                </mxCell>
                <mxCell id="106" style="edgeStyle=none;html=1;exitX=1;exitY=0.5;exitDx=0;exitDy=0;fontColor=#000000;strokeColor=#000000;endArrow=openThin;endFill=0;" parent="1" source="104" target="260" edge="1">
                    <mxGeometry relative="1" as="geometry"/>
                </mxCell>
                <mxCell id="107" style="edgeStyle=none;html=1;exitX=1;exitY=0.25;exitDx=0;exitDy=0;fontColor=#000000;strokeColor=#000000;endArrow=openThin;endFill=0;" parent="1" source="104" target="255" edge="1">
                    <mxGeometry relative="1" as="geometry"/>
                </mxCell>
                <mxCell id="104" value="&lt;span&gt;Raw Data&lt;/span&gt;&lt;br&gt;&lt;span&gt;(Time Series Data)&lt;/span&gt;" style="rounded=0;whiteSpace=wrap;html=1;fontColor=#000000;strokeColor=#000000;fillColor=none;" parent="1" vertex="1">
                    <mxGeometry x="35" y="285" width="110" height="34.66" as="geometry"/>
                </mxCell>
                <mxCell id="108" style="edgeStyle=none;html=1;exitX=1;exitY=0.5;exitDx=0;exitDy=0;entryX=0;entryY=0.5;entryDx=0;entryDy=0;fontColor=#000000;strokeColor=#000000;endArrow=openThin;endFill=0;" parent="1" source="96" target="86" edge="1">
                    <mxGeometry relative="1" as="geometry"/>
                </mxCell>
                <mxCell id="112" style="edgeStyle=none;html=1;entryX=0.5;entryY=0;entryDx=0;entryDy=0;fontColor=#000000;strokeColor=#000000;endArrow=openThin;endFill=0;" parent="1" target="86" edge="1">
                    <mxGeometry relative="1" as="geometry">
                        <mxPoint x="340" y="223" as="sourcePoint"/>
                    </mxGeometry>
                </mxCell>
                <mxCell id="118" value="Optimized Model" style="rounded=0;whiteSpace=wrap;html=1;fontColor=#000000;strokeColor=#000000;fillColor=#F9C900;" parent="1" vertex="1">
                    <mxGeometry x="290" y="428" width="100" height="30" as="geometry"/>
                </mxCell>
                <mxCell id="173" style="edgeStyle=none;html=1;exitX=0.5;exitY=1;exitDx=0;exitDy=0;entryX=0.5;entryY=0;entryDx=0;entryDy=0;fontSize=13;fontColor=#000000;strokeColor=#000000;strokeWidth=1;endArrow=openThin;endFill=0;" parent="1" source="134" target="135" edge="1">
                    <mxGeometry relative="1" as="geometry"/>
                </mxCell>
                <mxCell id="134" value="Data smoothing" style="rounded=1;whiteSpace=wrap;html=1;fontColor=#000000;strokeColor=#000000;fillColor=none;" parent="1" vertex="1">
                    <mxGeometry x="164.19999999999996" y="135" width="99.61" height="30" as="geometry"/>
                </mxCell>
                <mxCell id="135" value="Feature engineering" style="rounded=1;whiteSpace=wrap;html=1;fontColor=#000000;strokeColor=#000000;fillColor=none;" parent="1" vertex="1">
                    <mxGeometry x="163.99999999999997" y="179" width="99.61" height="30" as="geometry"/>
                </mxCell>
                <mxCell id="140" style="edgeStyle=none;html=1;entryX=0.5;entryY=0;entryDx=0;entryDy=0;fontColor=#000000;strokeColor=#FF0000;endArrow=openThin;endFill=0;fillColor=#e51400;" parent="1" edge="1">
                    <mxGeometry relative="1" as="geometry">
                        <mxPoint x="195" y="219" as="sourcePoint"/>
                        <mxPoint x="195" y="239.65999999999997" as="targetPoint"/>
                    </mxGeometry>
                </mxCell>
                <mxCell id="141" style="edgeStyle=none;html=1;entryX=0.5;entryY=0;entryDx=0;entryDy=0;fontColor=#000000;strokeColor=#FF0000;startArrow=openThin;startFill=0;endArrow=none;endFill=0;fillColor=#e51400;" parent="1" edge="1">
                    <mxGeometry relative="1" as="geometry">
                        <mxPoint x="235" y="219" as="sourcePoint"/>
                        <mxPoint x="235" y="239.65999999999997" as="targetPoint"/>
                    </mxGeometry>
                </mxCell>
                <mxCell id="142" value="&lt;font style=&quot;font-size: 10px&quot;&gt;Color&lt;/font&gt;" style="rounded=0;whiteSpace=wrap;html=1;fontColor=#000000;strokeColor=#000000;fillColor=none;" parent="1" vertex="1">
                    <mxGeometry x="210.08" y="612.99" width="45.15" height="21.01" as="geometry"/>
                </mxCell>
                <mxCell id="143" value="&lt;font style=&quot;font-size: 10px&quot;&gt;NH&lt;sub&gt;3&lt;/sub&gt;-N&lt;/font&gt;" style="rounded=0;whiteSpace=wrap;html=1;fontColor=#000000;strokeColor=#000000;fillColor=none;" parent="1" vertex="1">
                    <mxGeometry x="264.12" y="612.99" width="45.16" height="21.01" as="geometry"/>
                </mxCell>
                <mxCell id="144" value="&lt;font style=&quot;font-size: 10px&quot;&gt;Sin-hour&lt;/font&gt;" style="rounded=1;whiteSpace=wrap;html=1;fontColor=#000000;strokeColor=#000000;fillColor=none;" parent="1" vertex="1">
                    <mxGeometry x="319.56" y="611.99" width="45.15" height="21.01" as="geometry"/>
                </mxCell>
                <mxCell id="145" value="&lt;font style=&quot;font-size: 10px&quot;&gt;Cos-hour&lt;/font&gt;" style="rounded=1;whiteSpace=wrap;html=1;fontColor=#000000;strokeColor=#000000;fillColor=none;" parent="1" vertex="1">
                    <mxGeometry x="374.85" y="611.99" width="45.15" height="21.01" as="geometry"/>
                </mxCell>
                <mxCell id="157" value="&lt;font style=&quot;font-size: 10px&quot;&gt;Training with selected features&lt;/font&gt;" style="rounded=0;whiteSpace=wrap;html=1;fontColor=#000000;strokeColor=#000000;fillColor=#F9C900;" parent="1" vertex="1">
                    <mxGeometry x="244.3" y="722" width="141.39" height="18" as="geometry"/>
                </mxCell>
                <mxCell id="161" value="&lt;b&gt;&lt;font style=&quot;font-size: 13px&quot;&gt;Baseline model training steps&lt;/font&gt;&lt;/b&gt;" style="rounded=0;whiteSpace=wrap;html=1;fontColor=#000000;strokeColor=none;fillColor=none;" parent="1" vertex="1">
                    <mxGeometry x="400" y="138" width="110" height="30" as="geometry"/>
                </mxCell>
                <mxCell id="163" value="" style="endArrow=none;html=1;fontColor=#000000;strokeColor=#3700CC;dashed=1;fillColor=#6a00ff;strokeWidth=2;" parent="1" edge="1">
                    <mxGeometry width="50" height="50" relative="1" as="geometry">
                        <mxPoint x="30" y="413" as="sourcePoint"/>
                        <mxPoint x="30" y="230" as="targetPoint"/>
                    </mxGeometry>
                </mxCell>
                <mxCell id="164" value="" style="endArrow=none;html=1;fontColor=#000000;strokeColor=#3700CC;dashed=1;fillColor=#6a00ff;strokeWidth=2;" parent="1" edge="1">
                    <mxGeometry width="50" height="50" relative="1" as="geometry">
                        <mxPoint x="30" y="418" as="sourcePoint"/>
                        <mxPoint x="520" y="418" as="targetPoint"/>
                    </mxGeometry>
                </mxCell>
                <mxCell id="165" value="" style="endArrow=none;html=1;fontColor=#000000;strokeColor=#3700CC;dashed=1;fillColor=#6a00ff;strokeWidth=2;" parent="1" edge="1">
                    <mxGeometry width="50" height="50" relative="1" as="geometry">
                        <mxPoint x="519" y="125" as="sourcePoint"/>
                        <mxPoint x="519" y="417" as="targetPoint"/>
                    </mxGeometry>
                </mxCell>
                <mxCell id="166" value="" style="endArrow=none;html=1;fontColor=#000000;strokeColor=#3700CC;dashed=1;fillColor=#6a00ff;strokeWidth=2;" parent="1" edge="1">
                    <mxGeometry width="50" height="50" relative="1" as="geometry">
                        <mxPoint x="280" y="124" as="sourcePoint"/>
                        <mxPoint x="520" y="124" as="targetPoint"/>
                    </mxGeometry>
                </mxCell>
                <mxCell id="167" value="" style="endArrow=none;html=1;fontColor=#000000;strokeColor=#3700CC;dashed=1;fillColor=#6a00ff;strokeWidth=2;" parent="1" edge="1">
                    <mxGeometry width="50" height="50" relative="1" as="geometry">
                        <mxPoint x="280" y="123" as="sourcePoint"/>
                        <mxPoint x="280" y="228" as="targetPoint"/>
                    </mxGeometry>
                </mxCell>
                <mxCell id="168" value="" style="endArrow=none;html=1;fontColor=#000000;strokeColor=#3700CC;dashed=1;fillColor=#6a00ff;strokeWidth=2;" parent="1" edge="1">
                    <mxGeometry width="50" height="50" relative="1" as="geometry">
                        <mxPoint x="30" y="229.9999999999999" as="sourcePoint"/>
                        <mxPoint x="280" y="230" as="targetPoint"/>
                    </mxGeometry>
                </mxCell>
                <mxCell id="176" style="edgeStyle=none;html=1;exitX=1;exitY=0.5;exitDx=0;exitDy=0;entryX=0;entryY=0.5;entryDx=0;entryDy=0;fontColor=#000000;strokeColor=#000000;endArrow=openThin;endFill=0;" parent="1" edge="1">
                    <mxGeometry relative="1" as="geometry">
                        <mxPoint x="390" y="255.16999999999993" as="sourcePoint"/>
                        <mxPoint x="410" y="255.16999999999993" as="targetPoint"/>
                    </mxGeometry>
                </mxCell>
                <mxCell id="185" value="&lt;b&gt;&lt;font style=&quot;font-size: 13px&quot;&gt;Proposed model training steps&lt;/font&gt;&lt;/b&gt;" style="rounded=0;whiteSpace=wrap;html=1;fontColor=#000000;strokeColor=none;fillColor=none;" parent="1" vertex="1">
                    <mxGeometry x="35" y="157" width="110" height="30" as="geometry"/>
                </mxCell>
                <mxCell id="186" value="&lt;font style=&quot;font-size: 10px&quot;&gt;Color&lt;/font&gt;" style="rounded=0;whiteSpace=wrap;html=1;fontColor=#000000;strokeColor=#000000;fillColor=none;" parent="1" vertex="1">
                    <mxGeometry x="264.25" y="642.38" width="45.15" height="21" as="geometry"/>
                </mxCell>
                <mxCell id="187" value="&lt;font style=&quot;font-size: 10px&quot;&gt;NH&lt;sub&gt;3&lt;/sub&gt;-N&lt;/font&gt;" style="rounded=0;whiteSpace=wrap;html=1;fontColor=#000000;strokeColor=#000000;fillColor=none;" parent="1" vertex="1">
                    <mxGeometry x="210.23999999999998" y="642.38" width="45.16" height="21" as="geometry"/>
                </mxCell>
                <mxCell id="188" value="&lt;font style=&quot;font-size: 10px&quot;&gt;Sin-hour&lt;/font&gt;" style="rounded=1;whiteSpace=wrap;html=1;fontColor=#000000;strokeColor=#000000;fillColor=none;" parent="1" vertex="1">
                    <mxGeometry x="319.56" y="642.38" width="45.15" height="21" as="geometry"/>
                </mxCell>
                <mxCell id="189" value="&lt;font style=&quot;font-size: 10px&quot;&gt;Cos-hour&lt;/font&gt;" style="rounded=1;whiteSpace=wrap;html=1;fontColor=#000000;strokeColor=#000000;fillColor=none;" parent="1" vertex="1">
                    <mxGeometry x="374.85" y="642.38" width="45.15" height="21" as="geometry"/>
                </mxCell>
                <mxCell id="219" style="edgeStyle=none;html=1;exitX=0;exitY=0.5;exitDx=0;exitDy=0;exitPerimeter=0;dashed=1;dashPattern=1 1;fontSize=9;fontColor=#000000;startArrow=openThin;startFill=0;endArrow=openThin;endFill=0;strokeColor=#FF0080;strokeWidth=1;" parent="1" edge="1">
                    <mxGeometry relative="1" as="geometry">
                        <mxPoint x="261.8571428571429" y="677.1428571428571" as="targetPoint"/>
                        <mxPoint x="262.12" y="677.25" as="sourcePoint"/>
                    </mxGeometry>
                </mxCell>
                <mxCell id="191" value="" style="shape=crossbar;whiteSpace=wrap;html=1;rounded=1;fontSize=10;fontColor=#000000;strokeColor=#000000;" parent="1" vertex="1">
                    <mxGeometry x="264" y="687" width="156" height="6" as="geometry"/>
                </mxCell>
                <mxCell id="192" value="" style="shape=crossbar;whiteSpace=wrap;html=1;rounded=1;fontSize=10;fontColor=#000000;strokeColor=#000000;" parent="1" vertex="1">
                    <mxGeometry x="264" y="599.5" width="46" height="6" as="geometry"/>
                </mxCell>
                <mxCell id="193" value="&lt;font style=&quot;font-size: 9px&quot;&gt;&lt;b&gt;Ammonia&lt;/b&gt; forecasting model&lt;/font&gt;" style="rounded=0;whiteSpace=wrap;html=1;fontColor=#000000;strokeColor=none;fillColor=none;" parent="1" vertex="1">
                    <mxGeometry x="86.5" y="612.49" width="117.85" height="20.01" as="geometry"/>
                </mxCell>
                <mxCell id="194" value="&lt;font style=&quot;font-size: 9px&quot;&gt;&lt;b&gt;Colour&lt;/b&gt; forecasting model&lt;/font&gt;" style="rounded=0;whiteSpace=wrap;html=1;fontColor=#000000;strokeColor=none;fillColor=none;" parent="1" vertex="1">
                    <mxGeometry x="87" y="643.88" width="116.85" height="18" as="geometry"/>
                </mxCell>
                <mxCell id="198" value="" style="shape=crossbar;whiteSpace=wrap;html=1;rounded=1;fontSize=10;fontColor=#000000;strokeColor=#000000;" parent="1" vertex="1">
                    <mxGeometry x="210.08" y="581" width="99.92" height="6" as="geometry"/>
                </mxCell>
                <mxCell id="200" value="&lt;font style=&quot;font-size: 10px&quot;&gt;1 input&lt;/font&gt;" style="rounded=1;whiteSpace=wrap;html=1;fontColor=#000000;strokeColor=none;fillColor=#FFFFFF;fontSize=10;" parent="1" vertex="1">
                    <mxGeometry x="268.58" y="596.5" width="34.24" height="10" as="geometry"/>
                </mxCell>
                <mxCell id="201" value="&lt;font style=&quot;font-size: 10px&quot;&gt;3 inputs&lt;/font&gt;" style="rounded=1;whiteSpace=wrap;html=1;fontColor=#000000;strokeColor=none;fillColor=#FFFFFF;fontSize=10;" parent="1" vertex="1">
                    <mxGeometry x="319.56" y="685" width="43.24" height="10" as="geometry"/>
                </mxCell>
                <mxCell id="202" value="&lt;font style=&quot;font-size: 10px&quot;&gt;2 inputs&lt;/font&gt;" style="rounded=1;whiteSpace=wrap;html=1;fontColor=#000000;strokeColor=none;fillColor=#FFFFFF;fontSize=10;" parent="1" vertex="1">
                    <mxGeometry x="240" y="579" width="43.24" height="10" as="geometry"/>
                </mxCell>
                <mxCell id="203" value="" style="endArrow=none;html=1;strokeWidth=1;fontSize=10;fontColor=#000000;entryX=0;entryY=0.5;entryDx=0;entryDy=0;entryPerimeter=0;strokeColor=#FF0080;fillColor=#d80073;dashed=1;dashPattern=1 1;" parent="1" edge="1">
                    <mxGeometry width="50" height="50" relative="1" as="geometry">
                        <mxPoint x="210" y="613" as="sourcePoint"/>
                        <mxPoint x="210.08000000000004" y="585.9999999999999" as="targetPoint"/>
                    </mxGeometry>
                </mxCell>
                <mxCell id="205" value="" style="endArrow=none;html=1;strokeWidth=1;fontSize=10;fontColor=#000000;strokeColor=#FF0080;fillColor=#d80073;dashed=1;dashPattern=1 1;entryX=1;entryY=0.5;entryDx=0;entryDy=0;entryPerimeter=0;" parent="1" target="198" edge="1">
                    <mxGeometry width="50" height="50" relative="1" as="geometry">
                        <mxPoint x="310" y="614.5" as="sourcePoint"/>
                        <mxPoint x="310" y="604.5" as="targetPoint"/>
                    </mxGeometry>
                </mxCell>
                <mxCell id="211" value="&lt;font style=&quot;font-size: 9px&quot;&gt;&lt;b&gt;Feature engineering&amp;nbsp;&lt;/b&gt;&lt;/font&gt;" style="rounded=0;whiteSpace=wrap;html=1;fontColor=#000000;strokeColor=none;fillColor=none;" parent="1" vertex="1">
                    <mxGeometry x="327.78" y="666.25" width="94.22" height="10" as="geometry"/>
                </mxCell>
                <mxCell id="220" value="" style="endArrow=none;html=1;strokeWidth=1;fontSize=10;fontColor=#000000;entryX=0;entryY=0.5;entryDx=0;entryDy=0;entryPerimeter=0;strokeColor=#FF0080;fillColor=#d80073;dashed=1;dashPattern=1 1;" parent="1" edge="1">
                    <mxGeometry width="50" height="50" relative="1" as="geometry">
                        <mxPoint x="264.25" y="690.38" as="sourcePoint"/>
                        <mxPoint x="264.33000000000004" y="663.3799999999999" as="targetPoint"/>
                    </mxGeometry>
                </mxCell>
                <mxCell id="222" value="" style="endArrow=none;html=1;strokeWidth=1;fontSize=10;fontColor=#000000;strokeColor=#FF0080;fillColor=#d80073;dashed=1;dashPattern=1 1;" parent="1" edge="1">
                    <mxGeometry width="50" height="50" relative="1" as="geometry">
                        <mxPoint x="264" y="614.5" as="sourcePoint"/>
                        <mxPoint x="264" y="604.5" as="targetPoint"/>
                    </mxGeometry>
                </mxCell>
                <mxCell id="224" value="" style="endArrow=none;html=1;strokeWidth=1;fontSize=10;fontColor=#000000;entryX=0;entryY=0.5;entryDx=0;entryDy=0;entryPerimeter=0;strokeColor=#FF0080;fillColor=#d80073;dashed=1;dashPattern=1 1;exitX=1;exitY=0.5;exitDx=0;exitDy=0;exitPerimeter=0;" parent="1" source="226" edge="1">
                    <mxGeometry width="50" height="50" relative="1" as="geometry">
                        <mxPoint x="420" y="713" as="sourcePoint"/>
                        <mxPoint x="420.08000000000004" y="663.3799999999998" as="targetPoint"/>
                    </mxGeometry>
                </mxCell>
                <mxCell id="226" value="" style="shape=crossbar;whiteSpace=wrap;html=1;rounded=1;fontSize=10;fontColor=#000000;strokeColor=#000000;" parent="1" vertex="1">
                    <mxGeometry x="210" y="705" width="210" height="6" as="geometry"/>
                </mxCell>
                <mxCell id="225" value="&lt;font style=&quot;font-size: 10px&quot;&gt;4 inputs&lt;/font&gt;" style="rounded=1;whiteSpace=wrap;html=1;fontColor=#000000;strokeColor=none;fillColor=#FFFFFF;fontSize=10;" parent="1" vertex="1">
                    <mxGeometry x="290" y="703" width="43.24" height="10" as="geometry"/>
                </mxCell>
                <mxCell id="227" value="" style="endArrow=none;html=1;strokeWidth=1;fontSize=10;fontColor=#000000;entryX=0;entryY=0.5;entryDx=0;entryDy=0;entryPerimeter=0;strokeColor=#FF0080;fillColor=#d80073;dashed=1;dashPattern=1 1;exitX=0;exitY=0.5;exitDx=0;exitDy=0;exitPerimeter=0;" parent="1" source="226" edge="1">
                    <mxGeometry width="50" height="50" relative="1" as="geometry">
                        <mxPoint x="210" y="703" as="sourcePoint"/>
                        <mxPoint x="210.32000000000005" y="663.3799999999999" as="targetPoint"/>
                    </mxGeometry>
                </mxCell>
                <mxCell id="230" value="" style="endArrow=none;html=1;fontSize=9;fontColor=#000000;strokeColor=#808080;strokeWidth=0.5;" parent="1" edge="1">
                    <mxGeometry width="50" height="50" relative="1" as="geometry">
                        <mxPoint x="425" y="638" as="sourcePoint"/>
                        <mxPoint x="80" y="638" as="targetPoint"/>
                    </mxGeometry>
                </mxCell>
                <mxCell id="232" value="&lt;font style=&quot;font-size: 10px&quot;&gt;Trained models&lt;/font&gt;" style="rounded=0;whiteSpace=wrap;html=1;fontColor=#000000;strokeColor=#000000;fillColor=#F9C900;" parent="1" vertex="1">
                    <mxGeometry x="450" y="630" width="72" height="16" as="geometry"/>
                </mxCell>
                <mxCell id="234" style="edgeStyle=none;html=1;exitX=0.5;exitY=1;exitDx=0;exitDy=0;fontColor=#000000;strokeColor=#000000;endArrow=openThin;endFill=0;" parent="1" edge="1">
                    <mxGeometry relative="1" as="geometry">
                        <mxPoint x="425" y="638.25" as="sourcePoint"/>
                        <mxPoint x="449" y="638" as="targetPoint"/>
                    </mxGeometry>
                </mxCell>
                <mxCell id="236" value="Testing Dataset" style="rounded=0;whiteSpace=wrap;html=1;fontColor=#000000;strokeColor=#000000;fillColor=none;" parent="1" vertex="1">
                    <mxGeometry x="170.39" y="428" width="99.61" height="30" as="geometry"/>
                </mxCell>
                <mxCell id="237" style="edgeStyle=none;html=1;exitX=1;exitY=0.75;exitDx=0;exitDy=0;fontColor=#000000;strokeColor=#000000;endArrow=openThin;endFill=0;" parent="1" source="104" target="261" edge="1">
                    <mxGeometry relative="1" as="geometry">
                        <mxPoint x="155" y="312.3299999999999" as="sourcePoint"/>
                        <mxPoint x="180.0000000000001" y="364.9999999999999" as="targetPoint"/>
                    </mxGeometry>
                </mxCell>
                <mxCell id="238" style="edgeStyle=none;html=1;entryX=0;entryY=0.5;entryDx=0;entryDy=0;fontColor=#000000;strokeColor=#000000;endArrow=openThin;endFill=0;exitX=1;exitY=0.5;exitDx=0;exitDy=0;" parent="1" source="236" target="118" edge="1">
                    <mxGeometry relative="1" as="geometry">
                        <mxPoint x="271" y="440" as="sourcePoint"/>
                        <mxPoint x="296.2000000000001" y="492.66999999999985" as="targetPoint"/>
                    </mxGeometry>
                </mxCell>
                <mxCell id="241" style="edgeStyle=none;html=1;exitX=1;exitY=0.5;exitDx=0;exitDy=0;entryX=0;entryY=0.5;entryDx=0;entryDy=0;fontColor=#000000;strokeColor=#000000;endArrow=openThin;endFill=0;" parent="1" target="242" edge="1">
                    <mxGeometry relative="1" as="geometry">
                        <mxPoint x="390" y="442.9999999999999" as="sourcePoint"/>
                    </mxGeometry>
                </mxCell>
                <mxCell id="242" value="Test loss &lt;br&gt;(Final evaluation)" style="rounded=0;whiteSpace=wrap;html=1;fontColor=#000000;strokeColor=#000000;fillColor=none;" parent="1" vertex="1">
                    <mxGeometry x="410" y="424" width="109" height="38" as="geometry"/>
                </mxCell>
                <mxCell id="244" value="" style="group" parent="1" vertex="1" connectable="0">
                    <mxGeometry x="175.36" y="461.93" width="88.89" height="50" as="geometry"/>
                </mxCell>
                <mxCell id="245" value="" style="endArrow=none;html=1;fontColor=#000000;strokeColor=#000000;" parent="244" edge="1">
                    <mxGeometry width="50" height="50" relative="1" as="geometry">
                        <mxPoint y="50" as="sourcePoint"/>
                        <mxPoint as="targetPoint"/>
                    </mxGeometry>
                </mxCell>
                <mxCell id="246" value="" style="endArrow=none;html=1;fontColor=#000000;strokeColor=#000000;" parent="244" edge="1">
                    <mxGeometry width="50" height="50" relative="1" as="geometry">
                        <mxPoint x="86.73822480765621" y="50" as="sourcePoint"/>
                        <mxPoint y="50" as="targetPoint"/>
                    </mxGeometry>
                </mxCell>
                <mxCell id="247" value="" style="group" parent="244" vertex="1" connectable="0">
                    <mxGeometry y="1.1031249999999915" width="88.89" height="43.19062500000001" as="geometry"/>
                </mxCell>
                <mxCell id="248" value="" style="pointerEvents=1;verticalLabelPosition=bottom;shadow=0;dashed=0;align=center;html=1;verticalAlign=top;shape=mxgraph.electrical.waveforms.sine_wave;fontColor=#000000;strokeColor=#CCCCCC;fillColor=none;" parent="247" vertex="1">
                    <mxGeometry y="12.021875000000009" width="18.01486207543629" height="30.625" as="geometry"/>
                </mxCell>
                <mxCell id="249" value="" style="pointerEvents=1;verticalLabelPosition=bottom;shadow=0;dashed=0;align=center;html=1;verticalAlign=top;shape=mxgraph.electrical.waveforms.sine_wave;fontColor=#000000;strokeColor=#CCCCCC;fillColor=none;" parent="247" vertex="1">
                    <mxGeometry x="18.01486207543629" y="17.95937500000001" width="20.016513417151433" height="18.75" as="geometry"/>
                </mxCell>
                <mxCell id="250" value="" style="pointerEvents=1;verticalLabelPosition=bottom;shadow=0;dashed=0;align=center;html=1;verticalAlign=top;shape=mxgraph.electrical.waveforms.sine_wave;fontColor=#000000;strokeColor=#CCCCCC;fillColor=none;" parent="247" vertex="1">
                    <mxGeometry x="38.03137549258773" y="14.053125000000009" width="10.675473822480763" height="26.5625" as="geometry"/>
                </mxCell>
                <mxCell id="251" value="" style="pointerEvents=1;verticalLabelPosition=bottom;shadow=0;dashed=0;align=center;html=1;verticalAlign=top;shape=mxgraph.electrical.waveforms.sine_wave;fontColor=#000000;strokeColor=#CCCCCC;fillColor=none;" parent="247" vertex="1">
                    <mxGeometry x="48.70684931506849" y="17.95937500000001" width="11.34269093638581" height="18.75" as="geometry"/>
                </mxCell>
                <mxCell id="252" value="" style="pointerEvents=1;verticalLabelPosition=bottom;shadow=0;dashed=0;align=center;html=1;verticalAlign=top;shape=mxgraph.electrical.waveforms.sine_wave;fontColor=#000000;strokeColor=#CCCCCC;fillColor=none;" parent="247" vertex="1">
                    <mxGeometry x="60.04954025145429" y="11.471875000000011" width="12.677125164195907" height="31.71875" as="geometry"/>
                </mxCell>
                <mxCell id="253" value="" style="pointerEvents=1;verticalLabelPosition=bottom;shadow=0;dashed=0;align=center;html=1;verticalAlign=top;shape=mxgraph.electrical.waveforms.sine_wave;fontColor=#000000;strokeColor=#000000;fillColor=none;" parent="247" vertex="1">
                    <mxGeometry x="72.7266654156502" y="17.95937500000001" width="13.344342278100955" height="18.75" as="geometry"/>
                </mxCell>
                <mxCell id="254" value="" style="shape=curlyBracket;whiteSpace=wrap;html=1;rounded=1;fontColor=#000000;strokeColor=#000000;fillColor=none;rotation=90;" parent="247" vertex="1">
                    <mxGeometry x="72.72363482829797" y="-3.0368750000000073" width="13.344342278100955" height="17.09375" as="geometry"/>
                </mxCell>
                <mxCell id="255" value="&lt;font color=&quot;#000000&quot; size=&quot;1&quot;&gt;&lt;b style=&quot;font-size: 12px&quot;&gt;(a)&lt;/b&gt;&lt;/font&gt;" style="text;html=1;align=center;verticalAlign=middle;resizable=0;points=[];autosize=1;strokeColor=none;fillColor=none;fontSize=9;fontColor=#CCCCCC;" parent="1" vertex="1">
                    <mxGeometry x="145.39" y="246.83" width="25" height="16" as="geometry"/>
                </mxCell>
                <mxCell id="260" value="&lt;font color=&quot;#000000&quot; size=&quot;1&quot;&gt;&lt;b style=&quot;font-size: 12px&quot;&gt;(b)&lt;/b&gt;&lt;/font&gt;" style="text;html=1;align=center;verticalAlign=middle;resizable=0;points=[];autosize=1;strokeColor=none;fillColor=none;fontSize=9;fontColor=#CCCCCC;" parent="1" vertex="1">
                    <mxGeometry x="146.99999999999997" y="329.00000000000006" width="25" height="16" as="geometry"/>
                </mxCell>
                <mxCell id="261" value="&lt;font color=&quot;#000000&quot; size=&quot;1&quot;&gt;&lt;b style=&quot;font-size: 12px&quot;&gt;(c)&lt;/b&gt;&lt;/font&gt;" style="text;html=1;align=center;verticalAlign=middle;resizable=0;points=[];autosize=1;strokeColor=none;fillColor=none;fontSize=9;fontColor=#CCCCCC;" parent="1" vertex="1">
                    <mxGeometry x="145.39" y="435.00000000000006" width="25" height="16" as="geometry"/>
                </mxCell>
                <mxCell id="265" value="" style="group" parent="1" vertex="1" connectable="0">
                    <mxGeometry x="646" y="495.00000000000006" width="88.89" height="50" as="geometry"/>
                </mxCell>
                <mxCell id="266" value="" style="endArrow=none;html=1;fontColor=#000000;strokeColor=#000000;" parent="265" edge="1">
                    <mxGeometry width="50" height="50" relative="1" as="geometry">
                        <mxPoint y="50" as="sourcePoint"/>
                        <mxPoint as="targetPoint"/>
                    </mxGeometry>
                </mxCell>
                <mxCell id="267" value="" style="endArrow=none;html=1;fontColor=#000000;strokeColor=#000000;" parent="265" edge="1">
                    <mxGeometry width="50" height="50" relative="1" as="geometry">
                        <mxPoint x="86.73822480765621" y="50" as="sourcePoint"/>
                        <mxPoint y="50" as="targetPoint"/>
                    </mxGeometry>
                </mxCell>
                <mxCell id="268" value="" style="group" parent="265" vertex="1" connectable="0">
                    <mxGeometry y="1.1031249999999915" width="88.89" height="43.19062500000001" as="geometry"/>
                </mxCell>
                <mxCell id="269" value="" style="pointerEvents=1;verticalLabelPosition=bottom;shadow=0;dashed=0;align=center;html=1;verticalAlign=top;shape=mxgraph.electrical.waveforms.sine_wave;fontColor=#000000;strokeColor=#CCCCCC;fillColor=none;" parent="268" vertex="1">
                    <mxGeometry y="12.021875000000009" width="18.01486207543629" height="30.625" as="geometry"/>
                </mxCell>
                <mxCell id="270" value="" style="pointerEvents=1;verticalLabelPosition=bottom;shadow=0;dashed=0;align=center;html=1;verticalAlign=top;shape=mxgraph.electrical.waveforms.sine_wave;fontColor=#000000;strokeColor=#CCCCCC;fillColor=none;" parent="268" vertex="1">
                    <mxGeometry x="18.01486207543629" y="17.95937500000001" width="20.016513417151433" height="18.75" as="geometry"/>
                </mxCell>
                <mxCell id="271" value="" style="pointerEvents=1;verticalLabelPosition=bottom;shadow=0;dashed=0;align=center;html=1;verticalAlign=top;shape=mxgraph.electrical.waveforms.sine_wave;fontColor=#000000;strokeColor=#CCCCCC;fillColor=none;" parent="268" vertex="1">
                    <mxGeometry x="38.03137549258773" y="14.053125000000009" width="10.675473822480763" height="26.5625" as="geometry"/>
                </mxCell>
                <mxCell id="272" value="" style="pointerEvents=1;verticalLabelPosition=bottom;shadow=0;dashed=0;align=center;html=1;verticalAlign=top;shape=mxgraph.electrical.waveforms.sine_wave;fontColor=#000000;strokeColor=#CCCCCC;fillColor=none;" parent="268" vertex="1">
                    <mxGeometry x="48.70684931506849" y="17.95937500000001" width="11.34269093638581" height="18.75" as="geometry"/>
                </mxCell>
                <mxCell id="273" value="" style="pointerEvents=1;verticalLabelPosition=bottom;shadow=0;dashed=0;align=center;html=1;verticalAlign=top;shape=mxgraph.electrical.waveforms.sine_wave;fontColor=#000000;strokeColor=#000000;fillColor=none;" parent="268" vertex="1">
                    <mxGeometry x="60.04954025145429" y="11.471875000000011" width="12.677125164195907" height="31.71875" as="geometry"/>
                </mxCell>
                <mxCell id="274" value="" style="pointerEvents=1;verticalLabelPosition=bottom;shadow=0;dashed=0;align=center;html=1;verticalAlign=top;shape=mxgraph.electrical.waveforms.sine_wave;fontColor=#000000;strokeColor=#CCCCCC;fillColor=none;" parent="268" vertex="1">
                    <mxGeometry x="72.7266654156502" y="17.95937500000001" width="13.344342278100955" height="18.75" as="geometry"/>
                </mxCell>
                <mxCell id="275" value="" style="shape=curlyBracket;whiteSpace=wrap;html=1;rounded=1;fontColor=#000000;strokeColor=#000000;fillColor=none;rotation=90;" parent="268" vertex="1">
                    <mxGeometry x="60.05363482829798" y="-3.0368750000000073" width="13.344342278100955" height="17.09375" as="geometry"/>
                </mxCell>
                <mxCell id="276" value="" style="group" parent="1" vertex="1" connectable="0">
                    <mxGeometry x="640" y="369" width="99.61000000000001" height="80" as="geometry"/>
                </mxCell>
                <mxCell id="277" value="" style="group" parent="276" vertex="1" connectable="0">
                    <mxGeometry x="5.360000000000042" y="20" width="88.89" height="60" as="geometry"/>
                </mxCell>
                <mxCell id="278" value="" style="group" parent="277" vertex="1" connectable="0">
                    <mxGeometry y="16.363636363636363" width="88.89" height="43.63636363636364" as="geometry"/>
                </mxCell>
                <mxCell id="279" value="" style="endArrow=none;html=1;fontColor=#000000;strokeColor=#000000;" parent="278" edge="1">
                    <mxGeometry width="50" height="50" relative="1" as="geometry">
                        <mxPoint y="43.63636363636364" as="sourcePoint"/>
                        <mxPoint y="1.937843824800273e-15" as="targetPoint"/>
                    </mxGeometry>
                </mxCell>
                <mxCell id="280" value="" style="endArrow=none;html=1;fontColor=#000000;strokeColor=#000000;" parent="278" edge="1">
                    <mxGeometry width="50" height="50" relative="1" as="geometry">
                        <mxPoint x="88.89" y="43.63636363636364" as="sourcePoint"/>
                        <mxPoint y="43.63636363636364" as="targetPoint"/>
                    </mxGeometry>
                </mxCell>
                <mxCell id="281" value="" style="pointerEvents=1;verticalLabelPosition=bottom;shadow=0;dashed=0;align=center;html=1;verticalAlign=top;shape=mxgraph.electrical.waveforms.sine_wave;fontColor=#000000;strokeColor=#000000;fillColor=none;" parent="278" vertex="1">
                    <mxGeometry y="11.454545454545457" width="18.461769230769235" height="26.72727272727273" as="geometry"/>
                </mxCell>
                <mxCell id="282" value="" style="pointerEvents=1;verticalLabelPosition=bottom;shadow=0;dashed=0;align=center;html=1;verticalAlign=top;shape=mxgraph.electrical.waveforms.sine_wave;fontColor=#000000;strokeColor=#000000;fillColor=none;" parent="278" vertex="1">
                    <mxGeometry x="18.461769230769235" y="16.636363636363637" width="20.513076923076927" height="16.363636363636367" as="geometry"/>
                </mxCell>
                <mxCell id="283" value="" style="pointerEvents=1;verticalLabelPosition=bottom;shadow=0;dashed=0;align=center;html=1;verticalAlign=top;shape=mxgraph.electrical.waveforms.sine_wave;fontColor=#000000;strokeColor=#000000;fillColor=none;" parent="278" vertex="1">
                    <mxGeometry x="38.97484615384616" y="13.22727272727273" width="10.940307692307693" height="23.181818181818183" as="geometry"/>
                </mxCell>
                <mxCell id="284" value="" style="pointerEvents=1;verticalLabelPosition=bottom;shadow=0;dashed=0;align=center;html=1;verticalAlign=top;shape=mxgraph.electrical.waveforms.sine_wave;fontColor=#000000;strokeColor=#000000;fillColor=none;" parent="278" vertex="1">
                    <mxGeometry x="49.91515384615385" y="16.636363636363637" width="11.624076923076924" height="16.363636363636367" as="geometry"/>
                </mxCell>
                <mxCell id="285" value="" style="pointerEvents=1;verticalLabelPosition=bottom;shadow=0;dashed=0;align=center;html=1;verticalAlign=top;shape=mxgraph.electrical.waveforms.sine_wave;fontColor=#000000;strokeColor=#CCCCCC;fillColor=none;" parent="278" vertex="1">
                    <mxGeometry x="61.53923076923078" y="10.97454545454546" width="12.991615384615386" height="27.681818181818187" as="geometry"/>
                </mxCell>
                <mxCell id="286" value="" style="pointerEvents=1;verticalLabelPosition=bottom;shadow=0;dashed=0;align=center;html=1;verticalAlign=top;shape=mxgraph.electrical.waveforms.sine_wave;fontColor=#000000;strokeColor=#CCCCCC;fillColor=none;" parent="278" vertex="1">
                    <mxGeometry x="74.53084615384616" y="16.636363636363637" width="13.675384615384615" height="16.363636363636367" as="geometry"/>
                </mxCell>
                <mxCell id="287" value="" style="shape=curlyBracket;whiteSpace=wrap;html=1;rounded=1;fontColor=#000000;strokeColor=#000000;fillColor=none;rotation=90;" parent="278" vertex="1">
                    <mxGeometry x="28" y="-21.77" width="13.68" height="54.45" as="geometry"/>
                </mxCell>
                <mxCell id="288" value="Training Dataset" style="rounded=0;whiteSpace=wrap;html=1;fontColor=#000000;strokeColor=#000000;fillColor=none;" parent="276" vertex="1">
                    <mxGeometry width="99.61" height="30" as="geometry"/>
                </mxCell>
                <mxCell id="289" value="Validation Dataset" style="rounded=0;whiteSpace=wrap;html=1;fontColor=#000000;strokeColor=#000000;fillColor=none;" parent="1" vertex="1">
                    <mxGeometry x="640.64" y="460.00000000000006" width="99.61" height="30" as="geometry"/>
                </mxCell>
                <mxCell id="290" value="Testing Dataset" style="rounded=0;whiteSpace=wrap;html=1;fontColor=#000000;strokeColor=#000000;fillColor=none;" parent="1" vertex="1">
                    <mxGeometry x="640.64" y="559.2600000000001" width="99.61" height="30" as="geometry"/>
                </mxCell>
                <mxCell id="291" value="" style="group" parent="1" vertex="1" connectable="0">
                    <mxGeometry x="645.61" y="593.19" width="88.89" height="50" as="geometry"/>
                </mxCell>
                <mxCell id="292" value="" style="endArrow=none;html=1;fontColor=#000000;strokeColor=#000000;" parent="291" edge="1">
                    <mxGeometry width="50" height="50" relative="1" as="geometry">
                        <mxPoint y="50" as="sourcePoint"/>
                        <mxPoint as="targetPoint"/>
                    </mxGeometry>
                </mxCell>
                <mxCell id="293" value="" style="endArrow=none;html=1;fontColor=#000000;strokeColor=#000000;" parent="291" edge="1">
                    <mxGeometry width="50" height="50" relative="1" as="geometry">
                        <mxPoint x="86.73822480765621" y="50" as="sourcePoint"/>
                        <mxPoint y="50" as="targetPoint"/>
                    </mxGeometry>
                </mxCell>
                <mxCell id="294" value="" style="group" parent="291" vertex="1" connectable="0">
                    <mxGeometry y="1.1031249999999915" width="88.89" height="43.19062500000001" as="geometry"/>
                </mxCell>
                <mxCell id="295" value="" style="pointerEvents=1;verticalLabelPosition=bottom;shadow=0;dashed=0;align=center;html=1;verticalAlign=top;shape=mxgraph.electrical.waveforms.sine_wave;fontColor=#000000;strokeColor=#CCCCCC;fillColor=none;" parent="294" vertex="1">
                    <mxGeometry y="12.021875000000009" width="18.01486207543629" height="30.625" as="geometry"/>
                </mxCell>
                <mxCell id="296" value="" style="pointerEvents=1;verticalLabelPosition=bottom;shadow=0;dashed=0;align=center;html=1;verticalAlign=top;shape=mxgraph.electrical.waveforms.sine_wave;fontColor=#000000;strokeColor=#CCCCCC;fillColor=none;" parent="294" vertex="1">
                    <mxGeometry x="18.01486207543629" y="17.95937500000001" width="20.016513417151433" height="18.75" as="geometry"/>
                </mxCell>
                <mxCell id="297" value="" style="pointerEvents=1;verticalLabelPosition=bottom;shadow=0;dashed=0;align=center;html=1;verticalAlign=top;shape=mxgraph.electrical.waveforms.sine_wave;fontColor=#000000;strokeColor=#CCCCCC;fillColor=none;" parent="294" vertex="1">
                    <mxGeometry x="38.03137549258773" y="14.053125000000009" width="10.675473822480763" height="26.5625" as="geometry"/>
                </mxCell>
                <mxCell id="298" value="" style="pointerEvents=1;verticalLabelPosition=bottom;shadow=0;dashed=0;align=center;html=1;verticalAlign=top;shape=mxgraph.electrical.waveforms.sine_wave;fontColor=#000000;strokeColor=#CCCCCC;fillColor=none;" parent="294" vertex="1">
                    <mxGeometry x="48.70684931506849" y="17.95937500000001" width="11.34269093638581" height="18.75" as="geometry"/>
                </mxCell>
                <mxCell id="299" value="" style="pointerEvents=1;verticalLabelPosition=bottom;shadow=0;dashed=0;align=center;html=1;verticalAlign=top;shape=mxgraph.electrical.waveforms.sine_wave;fontColor=#000000;strokeColor=#CCCCCC;fillColor=none;" parent="294" vertex="1">
                    <mxGeometry x="60.04954025145429" y="11.471875000000011" width="12.677125164195907" height="31.71875" as="geometry"/>
                </mxCell>
                <mxCell id="300" value="" style="pointerEvents=1;verticalLabelPosition=bottom;shadow=0;dashed=0;align=center;html=1;verticalAlign=top;shape=mxgraph.electrical.waveforms.sine_wave;fontColor=#000000;strokeColor=#000000;fillColor=none;" parent="294" vertex="1">
                    <mxGeometry x="72.7266654156502" y="17.95937500000001" width="13.344342278100955" height="18.75" as="geometry"/>
                </mxCell>
                <mxCell id="301" value="" style="shape=curlyBracket;whiteSpace=wrap;html=1;rounded=1;fontColor=#000000;strokeColor=#000000;fillColor=none;rotation=90;" parent="294" vertex="1">
                    <mxGeometry x="72.72363482829797" y="-3.0368750000000073" width="13.344342278100955" height="17.09375" as="geometry"/>
                </mxCell>
                <mxCell id="303" value="&lt;font style=&quot;font-size: 10px&quot;&gt;Color&lt;/font&gt;" style="rounded=0;whiteSpace=wrap;html=1;fontColor=#000000;strokeColor=#000000;fillColor=none;" parent="1" vertex="1">
                    <mxGeometry x="198.08" y="901" width="45.15" height="21.01" as="geometry"/>
                </mxCell>
                <mxCell id="304" value="&lt;font style=&quot;font-size: 10px&quot;&gt;NH&lt;sub&gt;3&lt;/sub&gt;-N&lt;/font&gt;" style="rounded=0;whiteSpace=wrap;html=1;fontColor=#000000;strokeColor=#000000;fillColor=none;" parent="1" vertex="1">
                    <mxGeometry x="252.12" y="901" width="45.16" height="21.01" as="geometry"/>
                </mxCell>
                <mxCell id="305" value="&lt;font style=&quot;font-size: 10px&quot;&gt;Sin-hour&lt;/font&gt;" style="rounded=1;whiteSpace=wrap;html=1;fontColor=#000000;strokeColor=#000000;fillColor=none;" parent="1" vertex="1">
                    <mxGeometry x="307.56" y="900" width="45.15" height="21.01" as="geometry"/>
                </mxCell>
                <mxCell id="306" value="&lt;font style=&quot;font-size: 10px&quot;&gt;Cos-hour&lt;/font&gt;" style="rounded=1;whiteSpace=wrap;html=1;fontColor=#000000;strokeColor=#000000;fillColor=none;" parent="1" vertex="1">
                    <mxGeometry x="362.85" y="900" width="45.15" height="21.01" as="geometry"/>
                </mxCell>
                <mxCell id="307" value="&lt;font style=&quot;font-size: 10px&quot;&gt;Training with selected features&lt;/font&gt;" style="rounded=0;whiteSpace=wrap;html=1;fontColor=#000000;strokeColor=#000000;fillColor=#F9C900;" parent="1" vertex="1">
                    <mxGeometry x="233.46" y="840" width="141.39" height="18" as="geometry"/>
                </mxCell>
                <mxCell id="315" value="&lt;font style=&quot;font-size: 9px&quot;&gt;&lt;b&gt;Ammonia&lt;/b&gt; forecasting model&lt;/font&gt;" style="rounded=0;whiteSpace=wrap;html=1;fontColor=#000000;strokeColor=none;fillColor=none;" parent="1" vertex="1">
                    <mxGeometry x="74.5" y="900.5" width="117.85" height="20.01" as="geometry"/>
                </mxCell>
                <mxCell id="327" value="" style="shape=crossbar;whiteSpace=wrap;html=1;rounded=1;fontSize=10;fontColor=#000000;strokeColor=#000000;" parent="1" vertex="1">
                    <mxGeometry x="198.52" y="953.25" width="210" height="6" as="geometry"/>
                </mxCell>
                <mxCell id="328" value="&lt;font style=&quot;font-size: 10px&quot;&gt;4 inputs&lt;/font&gt;" style="rounded=1;whiteSpace=wrap;html=1;fontColor=#000000;strokeColor=none;fillColor=#FFFFFF;fontSize=10;" parent="1" vertex="1">
                    <mxGeometry x="281.89" y="951.25" width="43.24" height="10" as="geometry"/>
                </mxCell>
                <mxCell id="329" value="" style="endArrow=none;html=1;strokeWidth=1;fontSize=10;fontColor=#000000;strokeColor=#FF0080;fillColor=#d80073;dashed=1;dashPattern=1 1;exitX=0;exitY=0.5;exitDx=0;exitDy=0;exitPerimeter=0;" parent="1" source="327" edge="1">
                    <mxGeometry width="50" height="50" relative="1" as="geometry">
                        <mxPoint x="198.52" y="987.25" as="sourcePoint"/>
                        <mxPoint x="199" y="924" as="targetPoint"/>
                    </mxGeometry>
                </mxCell>
                <mxCell id="331" value="&lt;font style=&quot;font-size: 10px&quot;&gt;Trained models&lt;/font&gt;" style="rounded=0;whiteSpace=wrap;html=1;fontColor=#000000;strokeColor=#000000;fillColor=#F9C900;" parent="1" vertex="1">
                    <mxGeometry x="438" y="900" width="72" height="16" as="geometry"/>
                </mxCell>
                <mxCell id="332" style="edgeStyle=none;html=1;exitX=0.5;exitY=1;exitDx=0;exitDy=0;fontColor=#000000;strokeColor=#000000;endArrow=openThin;endFill=0;" parent="1" edge="1">
                    <mxGeometry relative="1" as="geometry">
                        <mxPoint x="413" y="908.25" as="sourcePoint"/>
                        <mxPoint x="437" y="908" as="targetPoint"/>
                    </mxGeometry>
                </mxCell>
                <mxCell id="333" value="" style="endArrow=none;html=1;strokeWidth=1;fontSize=10;fontColor=#000000;entryX=0;entryY=0.5;entryDx=0;entryDy=0;entryPerimeter=0;strokeColor=#FF0080;fillColor=#d80073;dashed=1;dashPattern=1 1;" parent="1" edge="1">
                    <mxGeometry width="50" height="50" relative="1" as="geometry">
                        <mxPoint x="252" y="940" as="sourcePoint"/>
                        <mxPoint x="252.29000000000005" y="922.0099999999999" as="targetPoint"/>
                    </mxGeometry>
                </mxCell>
                <mxCell id="336" value="" style="shape=crossbar;whiteSpace=wrap;html=1;rounded=1;fontSize=10;fontColor=#000000;strokeColor=#000000;" parent="1" vertex="1">
                    <mxGeometry x="251.96" y="932" width="156" height="6" as="geometry"/>
                </mxCell>
                <mxCell id="335" value="&lt;font style=&quot;font-size: 10px&quot;&gt;3 inputs&lt;/font&gt;" style="rounded=1;whiteSpace=wrap;html=1;fontColor=#000000;strokeColor=none;fillColor=#FFFFFF;fontSize=10;" parent="1" vertex="1">
                    <mxGeometry x="308.52" y="930" width="43.24" height="10" as="geometry"/>
                </mxCell>
                <mxCell id="340" value="" style="endArrow=none;html=1;strokeWidth=1;fontSize=10;fontColor=#000000;strokeColor=#FF0080;fillColor=#d80073;dashed=1;dashPattern=1 1;exitX=0;exitY=0.5;exitDx=0;exitDy=0;exitPerimeter=0;" parent="1" edge="1">
                    <mxGeometry width="50" height="50" relative="1" as="geometry">
                        <mxPoint x="408" y="954.2500000000002" as="sourcePoint"/>
                        <mxPoint x="408.48" y="922" as="targetPoint"/>
                    </mxGeometry>
                </mxCell>
                <mxCell id="341" value="" style="shape=crossbar;whiteSpace=wrap;html=1;rounded=1;fontSize=10;fontColor=#000000;strokeColor=#000000;" parent="1" vertex="1">
                    <mxGeometry x="252.52" y="885.5" width="46" height="6" as="geometry"/>
                </mxCell>
                <mxCell id="342" value="" style="shape=crossbar;whiteSpace=wrap;html=1;rounded=1;fontSize=10;fontColor=#000000;strokeColor=#000000;" parent="1" vertex="1">
                    <mxGeometry x="198.60000000000002" y="867" width="99.92" height="6" as="geometry"/>
                </mxCell>
                <mxCell id="343" value="&lt;font style=&quot;font-size: 10px&quot;&gt;1 input&lt;/font&gt;" style="rounded=1;whiteSpace=wrap;html=1;fontColor=#000000;strokeColor=none;fillColor=#FFFFFF;fontSize=10;" parent="1" vertex="1">
                    <mxGeometry x="257.09999999999997" y="882.5" width="34.24" height="10" as="geometry"/>
                </mxCell>
                <mxCell id="344" value="&lt;font style=&quot;font-size: 10px&quot;&gt;2 inputs&lt;/font&gt;" style="rounded=1;whiteSpace=wrap;html=1;fontColor=#000000;strokeColor=none;fillColor=#FFFFFF;fontSize=10;" parent="1" vertex="1">
                    <mxGeometry x="228.52" y="865" width="43.24" height="10" as="geometry"/>
                </mxCell>
                <mxCell id="345" value="" style="endArrow=none;html=1;strokeWidth=1;fontSize=10;fontColor=#000000;entryX=0;entryY=0.5;entryDx=0;entryDy=0;entryPerimeter=0;strokeColor=#FF0080;fillColor=#d80073;dashed=1;dashPattern=1 1;" parent="1" edge="1">
                    <mxGeometry width="50" height="50" relative="1" as="geometry">
                        <mxPoint x="198.52" y="899" as="sourcePoint"/>
                        <mxPoint x="198.60000000000005" y="871.9999999999999" as="targetPoint"/>
                    </mxGeometry>
                </mxCell>
                <mxCell id="346" value="" style="endArrow=none;html=1;strokeWidth=1;fontSize=10;fontColor=#000000;strokeColor=#FF0080;fillColor=#d80073;dashed=1;dashPattern=1 1;entryX=1;entryY=0.5;entryDx=0;entryDy=0;entryPerimeter=0;" parent="1" target="342" edge="1">
                    <mxGeometry width="50" height="50" relative="1" as="geometry">
                        <mxPoint x="298.52" y="900.5" as="sourcePoint"/>
                        <mxPoint x="298.52" y="890.5" as="targetPoint"/>
                    </mxGeometry>
                </mxCell>
                <mxCell id="347" value="" style="endArrow=none;html=1;strokeWidth=1;fontSize=10;fontColor=#000000;strokeColor=#FF0080;fillColor=#d80073;dashed=1;dashPattern=1 1;" parent="1" edge="1">
                    <mxGeometry width="50" height="50" relative="1" as="geometry">
                        <mxPoint x="252.52" y="900.5" as="sourcePoint"/>
                        <mxPoint x="252.52" y="890.5" as="targetPoint"/>
                    </mxGeometry>
                </mxCell>
                <mxCell id="348" value="" style="rounded=1;whiteSpace=wrap;html=1;fontColor=#000000;strokeColor=#000000;fillColor=none;" vertex="1" parent="1">
                    <mxGeometry x="303.36" y="1102" width="112" height="90" as="geometry"/>
                </mxCell>
                <mxCell id="349" value="" style="rounded=1;whiteSpace=wrap;html=1;fontColor=#000000;strokeColor=#000000;fillColor=none;" vertex="1" parent="1">
                    <mxGeometry x="433.36" y="1106" width="112" height="90" as="geometry"/>
                </mxCell>
                <mxCell id="350" value="演算法選擇" style="whiteSpace=wrap;html=1;fontColor=#000000;strokeColor=#000000;fillColor=none;rounded=1;" vertex="1" parent="1">
                    <mxGeometry x="439.36" y="1111" width="100" height="30" as="geometry"/>
                </mxCell>
                <mxCell id="351" value="&lt;p&gt;&lt;/p&gt;&lt;span style=&quot;line-height: 1.2&quot;&gt;超參數調整&lt;br&gt;&lt;/span&gt;&lt;p&gt;&lt;/p&gt;" style="whiteSpace=wrap;html=1;fontColor=#000000;strokeColor=#000000;fillColor=none;align=center;rounded=1;" vertex="1" parent="1">
                    <mxGeometry x="439.36" y="1156" width="100" height="30" as="geometry"/>
                </mxCell>
                <mxCell id="352" style="edgeStyle=none;html=1;exitX=0.5;exitY=1;exitDx=0;exitDy=0;entryX=0.5;entryY=0;entryDx=0;entryDy=0;fillColor=#a20025;strokeColor=#000000;endArrow=openThin;endFill=0;" edge="1" parent="1" source="353" target="356">
                    <mxGeometry relative="1" as="geometry"/>
                </mxCell>
                <mxCell id="353" value="模型訓練" style="rounded=0;whiteSpace=wrap;html=1;fontColor=#000000;strokeColor=#000000;fillColor=none;" vertex="1" parent="1">
                    <mxGeometry x="435.36" y="1212.66" width="100" height="30.34" as="geometry"/>
                </mxCell>
                <mxCell id="354" style="edgeStyle=none;html=1;exitX=1;exitY=0.5;exitDx=0;exitDy=0;entryX=0;entryY=0.5;entryDx=0;entryDy=0;fontColor=#000000;strokeColor=#000000;endArrow=openThin;endFill=0;" edge="1" parent="1" source="356" target="358">
                    <mxGeometry relative="1" as="geometry"/>
                </mxCell>
                <mxCell id="355" style="edgeStyle=none;html=1;exitX=0.5;exitY=1;exitDx=0;exitDy=0;entryX=0.5;entryY=0;entryDx=0;entryDy=0;fontColor=#000000;strokeColor=#000000;endArrow=openThin;endFill=0;" edge="1" parent="1" source="356" target="400">
                    <mxGeometry relative="1" as="geometry"/>
                </mxCell>
                <mxCell id="356" value="模型評估" style="rounded=0;whiteSpace=wrap;html=1;fontColor=#000000;strokeColor=#000000;fillColor=none;" vertex="1" parent="1">
                    <mxGeometry x="435.36" y="1299" width="100" height="30" as="geometry"/>
                </mxCell>
                <mxCell id="357" style="edgeStyle=none;html=1;exitX=1;exitY=0.5;exitDx=0;exitDy=0;fontColor=#000000;strokeColor=#000000;endArrow=openThin;endFill=0;" edge="1" parent="1" source="358" target="349">
                    <mxGeometry relative="1" as="geometry">
                        <Array as="points">
                            <mxPoint x="655.36" y="1314"/>
                            <mxPoint x="655.36" y="1151"/>
                        </Array>
                        <mxPoint x="545.36" y="1138" as="targetPoint"/>
                    </mxGeometry>
                </mxCell>
                <mxCell id="358" value="驗證 loss" style="rounded=0;whiteSpace=wrap;html=1;fontColor=#000000;strokeColor=#000000;fillColor=none;" vertex="1" parent="1">
                    <mxGeometry x="555.36" y="1299" width="90" height="30" as="geometry"/>
                </mxCell>
                <mxCell id="359" value="訓練 loss" style="rounded=0;whiteSpace=wrap;html=1;fontColor=#000000;strokeColor=#000000;fillColor=none;" vertex="1" parent="1">
                    <mxGeometry x="555.36" y="1212.66" width="90" height="30.34" as="geometry"/>
                </mxCell>
                <mxCell id="360" value="" style="group" vertex="1" connectable="0" parent="1">
                    <mxGeometry x="320.72" y="1334" width="88.89" height="50" as="geometry"/>
                </mxCell>
                <mxCell id="361" value="" style="endArrow=none;html=1;fontColor=#000000;strokeColor=#000000;" edge="1" parent="360">
                    <mxGeometry width="50" height="50" relative="1" as="geometry">
                        <mxPoint y="50" as="sourcePoint"/>
                        <mxPoint as="targetPoint"/>
                    </mxGeometry>
                </mxCell>
                <mxCell id="362" value="" style="endArrow=none;html=1;fontColor=#000000;strokeColor=#000000;" edge="1" parent="360">
                    <mxGeometry width="50" height="50" relative="1" as="geometry">
                        <mxPoint x="86.73822480765621" y="50" as="sourcePoint"/>
                        <mxPoint y="50" as="targetPoint"/>
                    </mxGeometry>
                </mxCell>
                <mxCell id="363" value="" style="group" vertex="1" connectable="0" parent="360">
                    <mxGeometry y="1.1031249999999915" width="88.89" height="43.19062500000001" as="geometry"/>
                </mxCell>
                <mxCell id="364" value="" style="pointerEvents=1;verticalLabelPosition=bottom;shadow=0;dashed=0;align=center;html=1;verticalAlign=top;shape=mxgraph.electrical.waveforms.sine_wave;fontColor=#000000;strokeColor=#CCCCCC;fillColor=none;" vertex="1" parent="363">
                    <mxGeometry y="12.021875000000009" width="18.01486207543629" height="30.625" as="geometry"/>
                </mxCell>
                <mxCell id="365" value="" style="pointerEvents=1;verticalLabelPosition=bottom;shadow=0;dashed=0;align=center;html=1;verticalAlign=top;shape=mxgraph.electrical.waveforms.sine_wave;fontColor=#000000;strokeColor=#CCCCCC;fillColor=none;" vertex="1" parent="363">
                    <mxGeometry x="18.01486207543629" y="17.95937500000001" width="20.016513417151433" height="18.75" as="geometry"/>
                </mxCell>
                <mxCell id="366" value="" style="pointerEvents=1;verticalLabelPosition=bottom;shadow=0;dashed=0;align=center;html=1;verticalAlign=top;shape=mxgraph.electrical.waveforms.sine_wave;fontColor=#000000;strokeColor=#CCCCCC;fillColor=none;" vertex="1" parent="363">
                    <mxGeometry x="38.03137549258773" y="14.053125000000009" width="10.675473822480763" height="26.5625" as="geometry"/>
                </mxCell>
                <mxCell id="367" value="" style="pointerEvents=1;verticalLabelPosition=bottom;shadow=0;dashed=0;align=center;html=1;verticalAlign=top;shape=mxgraph.electrical.waveforms.sine_wave;fontColor=#000000;strokeColor=#CCCCCC;fillColor=none;" vertex="1" parent="363">
                    <mxGeometry x="48.70684931506849" y="17.95937500000001" width="11.34269093638581" height="18.75" as="geometry"/>
                </mxCell>
                <mxCell id="368" value="" style="pointerEvents=1;verticalLabelPosition=bottom;shadow=0;dashed=0;align=center;html=1;verticalAlign=top;shape=mxgraph.electrical.waveforms.sine_wave;fontColor=#000000;strokeColor=#000000;fillColor=none;" vertex="1" parent="363">
                    <mxGeometry x="60.04954025145429" y="11.471875000000011" width="12.677125164195907" height="31.71875" as="geometry"/>
                </mxCell>
                <mxCell id="369" value="" style="pointerEvents=1;verticalLabelPosition=bottom;shadow=0;dashed=0;align=center;html=1;verticalAlign=top;shape=mxgraph.electrical.waveforms.sine_wave;fontColor=#000000;strokeColor=#CCCCCC;fillColor=none;" vertex="1" parent="363">
                    <mxGeometry x="72.7266654156502" y="17.95937500000001" width="13.344342278100955" height="18.75" as="geometry"/>
                </mxCell>
                <mxCell id="370" value="" style="shape=curlyBracket;whiteSpace=wrap;html=1;rounded=1;fontColor=#000000;strokeColor=#000000;fillColor=none;rotation=90;" vertex="1" parent="363">
                    <mxGeometry x="60.05363482829798" y="-3.0368750000000073" width="13.344342278100955" height="17.09375" as="geometry"/>
                </mxCell>
                <mxCell id="371" value="" style="group" vertex="1" connectable="0" parent="1">
                    <mxGeometry x="315.36" y="1212.66" width="99.61000000000001" height="80" as="geometry"/>
                </mxCell>
                <mxCell id="372" value="" style="group" vertex="1" connectable="0" parent="371">
                    <mxGeometry x="5.360000000000042" y="20" width="88.89" height="60" as="geometry"/>
                </mxCell>
                <mxCell id="373" value="" style="group" vertex="1" connectable="0" parent="372">
                    <mxGeometry y="16.363636363636363" width="88.89" height="43.63636363636364" as="geometry"/>
                </mxCell>
                <mxCell id="374" value="" style="endArrow=none;html=1;fontColor=#000000;strokeColor=#000000;" edge="1" parent="373">
                    <mxGeometry width="50" height="50" relative="1" as="geometry">
                        <mxPoint y="43.63636363636364" as="sourcePoint"/>
                        <mxPoint y="1.937843824800273e-15" as="targetPoint"/>
                    </mxGeometry>
                </mxCell>
                <mxCell id="375" value="" style="endArrow=none;html=1;fontColor=#000000;strokeColor=#000000;" edge="1" parent="373">
                    <mxGeometry width="50" height="50" relative="1" as="geometry">
                        <mxPoint x="88.89" y="43.63636363636364" as="sourcePoint"/>
                        <mxPoint y="43.63636363636364" as="targetPoint"/>
                    </mxGeometry>
                </mxCell>
                <mxCell id="376" value="" style="pointerEvents=1;verticalLabelPosition=bottom;shadow=0;dashed=0;align=center;html=1;verticalAlign=top;shape=mxgraph.electrical.waveforms.sine_wave;fontColor=#000000;strokeColor=#000000;fillColor=none;" vertex="1" parent="373">
                    <mxGeometry y="11.454545454545457" width="18.461769230769235" height="26.72727272727273" as="geometry"/>
                </mxCell>
                <mxCell id="377" value="" style="pointerEvents=1;verticalLabelPosition=bottom;shadow=0;dashed=0;align=center;html=1;verticalAlign=top;shape=mxgraph.electrical.waveforms.sine_wave;fontColor=#000000;strokeColor=#000000;fillColor=none;" vertex="1" parent="373">
                    <mxGeometry x="18.461769230769235" y="16.636363636363637" width="20.513076923076927" height="16.363636363636367" as="geometry"/>
                </mxCell>
                <mxCell id="378" value="" style="pointerEvents=1;verticalLabelPosition=bottom;shadow=0;dashed=0;align=center;html=1;verticalAlign=top;shape=mxgraph.electrical.waveforms.sine_wave;fontColor=#000000;strokeColor=#000000;fillColor=none;" vertex="1" parent="373">
                    <mxGeometry x="38.97484615384616" y="13.22727272727273" width="10.940307692307693" height="23.181818181818183" as="geometry"/>
                </mxCell>
                <mxCell id="379" value="" style="pointerEvents=1;verticalLabelPosition=bottom;shadow=0;dashed=0;align=center;html=1;verticalAlign=top;shape=mxgraph.electrical.waveforms.sine_wave;fontColor=#000000;strokeColor=#000000;fillColor=none;" vertex="1" parent="373">
                    <mxGeometry x="49.91515384615385" y="16.636363636363637" width="11.624076923076924" height="16.363636363636367" as="geometry"/>
                </mxCell>
                <mxCell id="380" value="" style="pointerEvents=1;verticalLabelPosition=bottom;shadow=0;dashed=0;align=center;html=1;verticalAlign=top;shape=mxgraph.electrical.waveforms.sine_wave;fontColor=#000000;strokeColor=#CCCCCC;fillColor=none;" vertex="1" parent="373">
                    <mxGeometry x="61.53923076923078" y="10.97454545454546" width="12.991615384615386" height="27.681818181818187" as="geometry"/>
                </mxCell>
                <mxCell id="381" value="" style="pointerEvents=1;verticalLabelPosition=bottom;shadow=0;dashed=0;align=center;html=1;verticalAlign=top;shape=mxgraph.electrical.waveforms.sine_wave;fontColor=#000000;strokeColor=#CCCCCC;fillColor=none;" vertex="1" parent="373">
                    <mxGeometry x="74.53084615384616" y="16.636363636363637" width="13.675384615384615" height="16.363636363636367" as="geometry"/>
                </mxCell>
                <mxCell id="382" value="" style="shape=curlyBracket;whiteSpace=wrap;html=1;rounded=1;fontColor=#000000;strokeColor=#000000;fillColor=none;rotation=90;" vertex="1" parent="373">
                    <mxGeometry x="28" y="-21.77" width="13.68" height="54.45" as="geometry"/>
                </mxCell>
                <mxCell id="383" value="訓練集" style="rounded=0;whiteSpace=wrap;html=1;fontColor=#000000;strokeColor=#000000;fillColor=none;" vertex="1" parent="371">
                    <mxGeometry width="99.61" height="30" as="geometry"/>
                </mxCell>
                <mxCell id="384" style="edgeStyle=none;html=1;exitX=1;exitY=0.5;exitDx=0;exitDy=0;entryX=0;entryY=0.5;entryDx=0;entryDy=0;fontColor=#000000;strokeColor=#000000;endArrow=openThin;endFill=0;" edge="1" parent="1" source="385" target="356">
                    <mxGeometry relative="1" as="geometry"/>
                </mxCell>
                <mxCell id="385" value="驗證集" style="rounded=0;whiteSpace=wrap;html=1;fontColor=#000000;strokeColor=#000000;fillColor=none;" vertex="1" parent="1">
                    <mxGeometry x="315.36" y="1299" width="99.61" height="30" as="geometry"/>
                </mxCell>
                <mxCell id="386" value="" style="group" vertex="1" connectable="0" parent="1">
                    <mxGeometry x="190.51000000000002" y="1299" width="89.7" height="46" as="geometry"/>
                </mxCell>
                <mxCell id="387" value="" style="endArrow=none;html=1;fontColor=#000000;strokeColor=#000000;" edge="1" parent="386">
                    <mxGeometry width="50" height="50" relative="1" as="geometry">
                        <mxPoint y="46" as="sourcePoint"/>
                        <mxPoint as="targetPoint"/>
                    </mxGeometry>
                </mxCell>
                <mxCell id="388" value="" style="endArrow=none;html=1;fontColor=#000000;strokeColor=#000000;" edge="1" parent="386">
                    <mxGeometry width="50" height="50" relative="1" as="geometry">
                        <mxPoint x="89.7" y="46" as="sourcePoint"/>
                        <mxPoint y="46" as="targetPoint"/>
                    </mxGeometry>
                </mxCell>
                <mxCell id="389" value="" style="pointerEvents=1;verticalLabelPosition=bottom;shadow=0;dashed=0;align=center;html=1;verticalAlign=top;shape=mxgraph.electrical.waveforms.sine_wave;fontColor=#000000;strokeColor=#000000;fillColor=none;" vertex="1" parent="386">
                    <mxGeometry y="12.075000000000001" width="18.630000000000003" height="28.175" as="geometry"/>
                </mxCell>
                <mxCell id="390" value="" style="pointerEvents=1;verticalLabelPosition=bottom;shadow=0;dashed=0;align=center;html=1;verticalAlign=top;shape=mxgraph.electrical.waveforms.sine_wave;fontColor=#000000;strokeColor=#000000;fillColor=none;" vertex="1" parent="386">
                    <mxGeometry x="18.630000000000003" y="17.5375" width="20.7" height="17.25" as="geometry"/>
                </mxCell>
                <mxCell id="391" value="" style="pointerEvents=1;verticalLabelPosition=bottom;shadow=0;dashed=0;align=center;html=1;verticalAlign=top;shape=mxgraph.electrical.waveforms.sine_wave;fontColor=#000000;strokeColor=#000000;fillColor=none;" vertex="1" parent="386">
                    <mxGeometry x="39.33" y="13.943750000000001" width="11.040000000000001" height="24.4375" as="geometry"/>
                </mxCell>
                <mxCell id="392" value="" style="pointerEvents=1;verticalLabelPosition=bottom;shadow=0;dashed=0;align=center;html=1;verticalAlign=top;shape=mxgraph.electrical.waveforms.sine_wave;fontColor=#000000;strokeColor=#000000;fillColor=none;" vertex="1" parent="386">
                    <mxGeometry x="50.370000000000005" y="17.5375" width="11.73" height="17.25" as="geometry"/>
                </mxCell>
                <mxCell id="393" value="" style="pointerEvents=1;verticalLabelPosition=bottom;shadow=0;dashed=0;align=center;html=1;verticalAlign=top;shape=mxgraph.electrical.waveforms.sine_wave;fontColor=#000000;strokeColor=#000000;fillColor=none;" vertex="1" parent="386">
                    <mxGeometry x="62.1" y="11.569000000000003" width="13.110000000000001" height="29.181250000000002" as="geometry"/>
                </mxCell>
                <mxCell id="394" value="" style="pointerEvents=1;verticalLabelPosition=bottom;shadow=0;dashed=0;align=center;html=1;verticalAlign=top;shape=mxgraph.electrical.waveforms.sine_wave;fontColor=#000000;strokeColor=#000000;fillColor=none;" vertex="1" parent="386">
                    <mxGeometry x="75.21000000000001" y="17.5375" width="13.8" height="17.25" as="geometry"/>
                </mxCell>
                <mxCell id="395" style="edgeStyle=none;html=1;exitX=1;exitY=0.5;exitDx=0;exitDy=0;fontColor=#000000;strokeColor=#000000;endArrow=openThin;endFill=0;" edge="1" parent="1" source="397" target="432">
                    <mxGeometry relative="1" as="geometry"/>
                </mxCell>
                <mxCell id="396" style="edgeStyle=none;html=1;exitX=1;exitY=0.25;exitDx=0;exitDy=0;fontColor=#000000;strokeColor=#000000;endArrow=openThin;endFill=0;" edge="1" parent="1" source="397" target="431">
                    <mxGeometry relative="1" as="geometry"/>
                </mxCell>
                <mxCell id="397" value="原始數據&lt;br&gt;(水質數據)" style="rounded=0;whiteSpace=wrap;html=1;fontColor=#000000;strokeColor=#000000;fillColor=none;" vertex="1" parent="1">
                    <mxGeometry x="180.36" y="1258" width="110" height="34.66" as="geometry"/>
                </mxCell>
                <mxCell id="398" style="edgeStyle=none;html=1;exitX=1;exitY=0.5;exitDx=0;exitDy=0;entryX=0;entryY=0.5;entryDx=0;entryDy=0;fontColor=#000000;strokeColor=#000000;endArrow=openThin;endFill=0;" edge="1" parent="1" source="383" target="353">
                    <mxGeometry relative="1" as="geometry"/>
                </mxCell>
                <mxCell id="399" style="edgeStyle=none;html=1;entryX=0.5;entryY=0;entryDx=0;entryDy=0;fontColor=#000000;strokeColor=#000000;endArrow=openThin;endFill=0;" edge="1" parent="1" target="353">
                    <mxGeometry relative="1" as="geometry">
                        <mxPoint x="485.36" y="1196" as="sourcePoint"/>
                    </mxGeometry>
                </mxCell>
                <mxCell id="400" value="最優化模型" style="rounded=0;whiteSpace=wrap;html=1;fontColor=#000000;strokeColor=#000000;fillColor=#F9C900;" vertex="1" parent="1">
                    <mxGeometry x="435.36" y="1401" width="100" height="30" as="geometry"/>
                </mxCell>
                <mxCell id="401" style="edgeStyle=none;html=1;exitX=0.5;exitY=1;exitDx=0;exitDy=0;entryX=0.5;entryY=0;entryDx=0;entryDy=0;fontSize=13;fontColor=#000000;strokeColor=#000000;strokeWidth=1;endArrow=openThin;endFill=0;" edge="1" parent="1" source="402" target="403">
                    <mxGeometry relative="1" as="geometry"/>
                </mxCell>
                <mxCell id="402" value="數據除噪" style="rounded=1;whiteSpace=wrap;html=1;fontColor=#000000;strokeColor=#000000;fillColor=none;" vertex="1" parent="1">
                    <mxGeometry x="309.55999999999995" y="1108" width="99.61" height="30" as="geometry"/>
                </mxCell>
                <mxCell id="403" value="特徵工程" style="rounded=1;whiteSpace=wrap;html=1;fontColor=#000000;strokeColor=#000000;fillColor=none;" vertex="1" parent="1">
                    <mxGeometry x="309.36" y="1152" width="99.61" height="30" as="geometry"/>
                </mxCell>
                <mxCell id="404" style="edgeStyle=none;html=1;entryX=0.5;entryY=0;entryDx=0;entryDy=0;fontColor=#000000;strokeColor=#FF0000;endArrow=openThin;endFill=0;fillColor=#e51400;" edge="1" parent="1">
                    <mxGeometry relative="1" as="geometry">
                        <mxPoint x="340.36" y="1192" as="sourcePoint"/>
                        <mxPoint x="340.36" y="1212.6599999999999" as="targetPoint"/>
                    </mxGeometry>
                </mxCell>
                <mxCell id="405" style="edgeStyle=none;html=1;entryX=0.5;entryY=0;entryDx=0;entryDy=0;fontColor=#000000;strokeColor=#FF0000;startArrow=openThin;startFill=0;endArrow=none;endFill=0;fillColor=#e51400;" edge="1" parent="1">
                    <mxGeometry relative="1" as="geometry">
                        <mxPoint x="380.36" y="1192" as="sourcePoint"/>
                        <mxPoint x="380.36" y="1212.6599999999999" as="targetPoint"/>
                    </mxGeometry>
                </mxCell>
                <mxCell id="406" value="&lt;b&gt;&lt;font style=&quot;font-size: 13px&quot;&gt;基準模型訓練&lt;/font&gt;&lt;/b&gt;" style="rounded=0;whiteSpace=wrap;html=1;fontColor=#000000;strokeColor=none;fillColor=none;" vertex="1" parent="1">
                    <mxGeometry x="545.36" y="1111" width="110" height="30" as="geometry"/>
                </mxCell>
                <mxCell id="407" value="" style="endArrow=none;html=1;fontColor=#000000;strokeColor=#3700CC;dashed=1;fillColor=#6a00ff;strokeWidth=2;" edge="1" parent="1">
                    <mxGeometry width="50" height="50" relative="1" as="geometry">
                        <mxPoint x="175.36" y="1386" as="sourcePoint"/>
                        <mxPoint x="175.36" y="1203" as="targetPoint"/>
                    </mxGeometry>
                </mxCell>
                <mxCell id="408" value="" style="endArrow=none;html=1;fontColor=#000000;strokeColor=#3700CC;dashed=1;fillColor=#6a00ff;strokeWidth=2;" edge="1" parent="1">
                    <mxGeometry width="50" height="50" relative="1" as="geometry">
                        <mxPoint x="175.36" y="1391" as="sourcePoint"/>
                        <mxPoint x="665.36" y="1391" as="targetPoint"/>
                    </mxGeometry>
                </mxCell>
                <mxCell id="409" value="" style="endArrow=none;html=1;fontColor=#000000;strokeColor=#3700CC;dashed=1;fillColor=#6a00ff;strokeWidth=2;" edge="1" parent="1">
                    <mxGeometry width="50" height="50" relative="1" as="geometry">
                        <mxPoint x="664.36" y="1098" as="sourcePoint"/>
                        <mxPoint x="664.36" y="1390" as="targetPoint"/>
                    </mxGeometry>
                </mxCell>
                <mxCell id="410" value="" style="endArrow=none;html=1;fontColor=#000000;strokeColor=#3700CC;dashed=1;fillColor=#6a00ff;strokeWidth=2;" edge="1" parent="1">
                    <mxGeometry width="50" height="50" relative="1" as="geometry">
                        <mxPoint x="425.36" y="1097" as="sourcePoint"/>
                        <mxPoint x="665.36" y="1097" as="targetPoint"/>
                    </mxGeometry>
                </mxCell>
                <mxCell id="411" value="" style="endArrow=none;html=1;fontColor=#000000;strokeColor=#3700CC;dashed=1;fillColor=#6a00ff;strokeWidth=2;" edge="1" parent="1">
                    <mxGeometry width="50" height="50" relative="1" as="geometry">
                        <mxPoint x="425.36" y="1096" as="sourcePoint"/>
                        <mxPoint x="425.36" y="1201" as="targetPoint"/>
                    </mxGeometry>
                </mxCell>
                <mxCell id="412" value="" style="endArrow=none;html=1;fontColor=#000000;strokeColor=#3700CC;dashed=1;fillColor=#6a00ff;strokeWidth=2;" edge="1" parent="1">
                    <mxGeometry width="50" height="50" relative="1" as="geometry">
                        <mxPoint x="175.36" y="1203" as="sourcePoint"/>
                        <mxPoint x="425.36" y="1203" as="targetPoint"/>
                    </mxGeometry>
                </mxCell>
                <mxCell id="413" style="edgeStyle=none;html=1;exitX=1;exitY=0.5;exitDx=0;exitDy=0;entryX=0;entryY=0.5;entryDx=0;entryDy=0;fontColor=#000000;strokeColor=#000000;endArrow=openThin;endFill=0;" edge="1" parent="1">
                    <mxGeometry relative="1" as="geometry">
                        <mxPoint x="535.36" y="1228.17" as="sourcePoint"/>
                        <mxPoint x="555.36" y="1228.17" as="targetPoint"/>
                    </mxGeometry>
                </mxCell>
                <mxCell id="414" value="&lt;b&gt;&lt;font style=&quot;font-size: 13px&quot;&gt;優化&lt;br&gt;模型訓練&lt;/font&gt;&lt;/b&gt;" style="rounded=0;whiteSpace=wrap;html=1;fontColor=#000000;strokeColor=none;fillColor=none;" vertex="1" parent="1">
                    <mxGeometry x="180.36" y="1130" width="110" height="30" as="geometry"/>
                </mxCell>
                <mxCell id="415" value="測試集" style="rounded=0;whiteSpace=wrap;html=1;fontColor=#000000;strokeColor=#000000;fillColor=none;" vertex="1" parent="1">
                    <mxGeometry x="315.75" y="1401" width="99.61" height="30" as="geometry"/>
                </mxCell>
                <mxCell id="416" style="edgeStyle=none;html=1;exitX=1;exitY=0.75;exitDx=0;exitDy=0;fontColor=#000000;strokeColor=#000000;endArrow=openThin;endFill=0;" edge="1" parent="1" source="397" target="433">
                    <mxGeometry relative="1" as="geometry">
                        <mxPoint x="300.36" y="1285.33" as="sourcePoint"/>
                        <mxPoint x="325.3600000000001" y="1338" as="targetPoint"/>
                    </mxGeometry>
                </mxCell>
                <mxCell id="417" style="edgeStyle=none;html=1;entryX=0;entryY=0.5;entryDx=0;entryDy=0;fontColor=#000000;strokeColor=#000000;endArrow=openThin;endFill=0;exitX=1;exitY=0.5;exitDx=0;exitDy=0;" edge="1" parent="1" source="415" target="400">
                    <mxGeometry relative="1" as="geometry">
                        <mxPoint x="416.36" y="1413" as="sourcePoint"/>
                        <mxPoint x="441.5600000000001" y="1465.6699999999998" as="targetPoint"/>
                    </mxGeometry>
                </mxCell>
                <mxCell id="418" style="edgeStyle=none;html=1;exitX=1;exitY=0.5;exitDx=0;exitDy=0;entryX=0;entryY=0.5;entryDx=0;entryDy=0;fontColor=#000000;strokeColor=#000000;endArrow=openThin;endFill=0;" edge="1" parent="1" target="419">
                    <mxGeometry relative="1" as="geometry">
                        <mxPoint x="535.36" y="1416" as="sourcePoint"/>
                    </mxGeometry>
                </mxCell>
                <mxCell id="419" value="測試 loss" style="rounded=0;whiteSpace=wrap;html=1;fontColor=#000000;strokeColor=#000000;fillColor=none;" vertex="1" parent="1">
                    <mxGeometry x="555.36" y="1397" width="109" height="38" as="geometry"/>
                </mxCell>
                <mxCell id="420" value="" style="group" vertex="1" connectable="0" parent="1">
                    <mxGeometry x="320.72" y="1434.93" width="88.89" height="50" as="geometry"/>
                </mxCell>
                <mxCell id="421" value="" style="endArrow=none;html=1;fontColor=#000000;strokeColor=#000000;" edge="1" parent="420">
                    <mxGeometry width="50" height="50" relative="1" as="geometry">
                        <mxPoint y="50" as="sourcePoint"/>
                        <mxPoint as="targetPoint"/>
                    </mxGeometry>
                </mxCell>
                <mxCell id="422" value="" style="endArrow=none;html=1;fontColor=#000000;strokeColor=#000000;" edge="1" parent="420">
                    <mxGeometry width="50" height="50" relative="1" as="geometry">
                        <mxPoint x="86.73822480765621" y="50" as="sourcePoint"/>
                        <mxPoint y="50" as="targetPoint"/>
                    </mxGeometry>
                </mxCell>
                <mxCell id="423" value="" style="group" vertex="1" connectable="0" parent="420">
                    <mxGeometry y="1.1031249999999915" width="88.89" height="43.19062500000001" as="geometry"/>
                </mxCell>
                <mxCell id="424" value="" style="pointerEvents=1;verticalLabelPosition=bottom;shadow=0;dashed=0;align=center;html=1;verticalAlign=top;shape=mxgraph.electrical.waveforms.sine_wave;fontColor=#000000;strokeColor=#CCCCCC;fillColor=none;" vertex="1" parent="423">
                    <mxGeometry y="12.021875000000009" width="18.01486207543629" height="30.625" as="geometry"/>
                </mxCell>
                <mxCell id="425" value="" style="pointerEvents=1;verticalLabelPosition=bottom;shadow=0;dashed=0;align=center;html=1;verticalAlign=top;shape=mxgraph.electrical.waveforms.sine_wave;fontColor=#000000;strokeColor=#CCCCCC;fillColor=none;" vertex="1" parent="423">
                    <mxGeometry x="18.01486207543629" y="17.95937500000001" width="20.016513417151433" height="18.75" as="geometry"/>
                </mxCell>
                <mxCell id="426" value="" style="pointerEvents=1;verticalLabelPosition=bottom;shadow=0;dashed=0;align=center;html=1;verticalAlign=top;shape=mxgraph.electrical.waveforms.sine_wave;fontColor=#000000;strokeColor=#CCCCCC;fillColor=none;" vertex="1" parent="423">
                    <mxGeometry x="38.03137549258773" y="14.053125000000009" width="10.675473822480763" height="26.5625" as="geometry"/>
                </mxCell>
                <mxCell id="427" value="" style="pointerEvents=1;verticalLabelPosition=bottom;shadow=0;dashed=0;align=center;html=1;verticalAlign=top;shape=mxgraph.electrical.waveforms.sine_wave;fontColor=#000000;strokeColor=#CCCCCC;fillColor=none;" vertex="1" parent="423">
                    <mxGeometry x="48.70684931506849" y="17.95937500000001" width="11.34269093638581" height="18.75" as="geometry"/>
                </mxCell>
                <mxCell id="428" value="" style="pointerEvents=1;verticalLabelPosition=bottom;shadow=0;dashed=0;align=center;html=1;verticalAlign=top;shape=mxgraph.electrical.waveforms.sine_wave;fontColor=#000000;strokeColor=#CCCCCC;fillColor=none;" vertex="1" parent="423">
                    <mxGeometry x="60.04954025145429" y="11.471875000000011" width="12.677125164195907" height="31.71875" as="geometry"/>
                </mxCell>
                <mxCell id="429" value="" style="pointerEvents=1;verticalLabelPosition=bottom;shadow=0;dashed=0;align=center;html=1;verticalAlign=top;shape=mxgraph.electrical.waveforms.sine_wave;fontColor=#000000;strokeColor=#000000;fillColor=none;" vertex="1" parent="423">
                    <mxGeometry x="72.7266654156502" y="17.95937500000001" width="13.344342278100955" height="18.75" as="geometry"/>
                </mxCell>
                <mxCell id="430" value="" style="shape=curlyBracket;whiteSpace=wrap;html=1;rounded=1;fontColor=#000000;strokeColor=#000000;fillColor=none;rotation=90;" vertex="1" parent="423">
                    <mxGeometry x="72.72363482829797" y="-3.0368750000000073" width="13.344342278100955" height="17.09375" as="geometry"/>
                </mxCell>
                <mxCell id="431" value="&lt;font color=&quot;#000000&quot; size=&quot;1&quot;&gt;&lt;b style=&quot;font-size: 12px&quot;&gt;(a)&lt;/b&gt;&lt;/font&gt;" style="text;html=1;align=center;verticalAlign=middle;resizable=0;points=[];autosize=1;strokeColor=none;fillColor=none;fontSize=9;fontColor=#CCCCCC;" vertex="1" parent="1">
                    <mxGeometry x="290.75" y="1219.83" width="25" height="16" as="geometry"/>
                </mxCell>
                <mxCell id="432" value="&lt;font color=&quot;#000000&quot; size=&quot;1&quot;&gt;&lt;b style=&quot;font-size: 12px&quot;&gt;(b)&lt;/b&gt;&lt;/font&gt;" style="text;html=1;align=center;verticalAlign=middle;resizable=0;points=[];autosize=1;strokeColor=none;fillColor=none;fontSize=9;fontColor=#CCCCCC;" vertex="1" parent="1">
                    <mxGeometry x="292.36" y="1302" width="25" height="16" as="geometry"/>
                </mxCell>
                <mxCell id="433" value="&lt;font color=&quot;#000000&quot; size=&quot;1&quot;&gt;&lt;b style=&quot;font-size: 12px&quot;&gt;(c)&lt;/b&gt;&lt;/font&gt;" style="text;html=1;align=center;verticalAlign=middle;resizable=0;points=[];autosize=1;strokeColor=none;fillColor=none;fontSize=9;fontColor=#CCCCCC;" vertex="1" parent="1">
                    <mxGeometry x="290.75" y="1408" width="25" height="16" as="geometry"/>
                </mxCell>
            </root>
        </mxGraphModel>
    </diagram>
</mxfile>